<?xml version="1.0" encoding="utf-8"?>
<!-- Generator: Adobe Illustrator 21.1.0, SVG Export Plug-In . SVG Version: 6.00 Build 0)  -->
<svg version="1.1" id="图层_1" xmlns="http://www.w3.org/2000/svg" xmlns:xlink="http://www.w3.org/1999/xlink" x="0px" y="0px"
	 viewBox="0 0 891 261" style="enable-background:new 0 0 891 261;" xml:space="preserve">
<style type="text/css">
	.st0{fill:url(#SVGID_1_);stroke:#CF2510;stroke-width:2;stroke-miterlimit:10;}
	.st1{fill:url(#SVGID_2_);}
	.st2{fill:url(#SVGID_3_);}
	.st3{fill:url(#SVGID_4_);}
	.st4{fill:#E17466;}
	.st5{fill:#CF2510;}
	.st6{fill:#E8978C;}
	.st7{fill:#FFFFFF;}
	.st8{fill:#F7DCD9;}
	.st9{fill:#F3C7C2;}
	.st10{clip-path:url(#SVGID_6_);}
	.st11{fill:#F5D3CF;}
</style>
<linearGradient id="SVGID_1_" gradientUnits="userSpaceOnUse" x1="556.4805" y1="26.095" x2="556.4805" y2="276.1" gradientTransform="matrix(1 0 0 -1 0 280)">
	<stop  offset="0" style="stop-color:#CF2510"/>
	<stop  offset="1" style="stop-color:#ED5338"/>
</linearGradient>
<path class="st0" d="M337.8,3.9H249c3.1,3.6,5.7,7.8,7.7,12.4c5.9,14,4.4,29.1-2.9,40.2l24.7,127.3l-9.2,9.8c-0.9,1-3.2,3.3-6.9,6.7
	l0.1,0.7l-14.6,11.1l-19.7,15.1v26.7h109.6v0h546.9V3.9H337.8z"/>
<g>
	<g>
		<g>
			
				<linearGradient id="SVGID_2_" gradientUnits="userSpaceOnUse" x1="579.2765" y1="60.191" x2="579.2765" y2="246.466" gradientTransform="matrix(1 0 0 -1 0 280)">
				<stop  offset="0" style="stop-color:#FFF3AD"/>
				<stop  offset="1" style="stop-color:#FFFFFF"/>
			</linearGradient>
			<path class="st1" d="M484.6,207h86.8v-20h-69.1v-12.5h69.1v-19.3h-79v-12.8h173.8v12.8H587v19.3h69.3v12.5H587v20h87v12.8H484.6
				V207z M507.4,51.4h44.6c2.6-5.6,4.9-11.5,6.8-17.9l16.3,3.7c-2.1,4.4-4.4,9.1-7,14.2h83.3v80.2H637v-6H521.8v5.6h-14.4
				L507.4,51.4L507.4,51.4z M637,64.3H521.8v17.9H637V64.3z M521.8,112.8H637V94.7H521.8V112.8z"/>
			
				<linearGradient id="SVGID_3_" gradientUnits="userSpaceOnUse" x1="778.004" y1="54.548" x2="778.004" y2="234.591" gradientTransform="matrix(1 0 0 -1 0 280)">
				<stop  offset="0" style="stop-color:#FFF3AD"/>
				<stop  offset="1" style="stop-color:#FFFFFF"/>
			</linearGradient>
			<path class="st2" d="M712.3,156.2v-19.1h-23.9v-13.6h92.3v13.6h-18.9v54.7c0,9.1,4.2,13.7,12.7,13.8h65.4
				c9.1,0,14.3-4.2,15.6-12.7c1.3-8.7,2.3-19.3,3.1-31.7c4,1.8,9,3.6,14.8,5.5c-1.2,12.1-2.4,22.1-3.7,30c-2.2,15.3-11.5,23-28,23
				h-70.1c-16.3,0.4-24.4-8.8-24.1-27.4v-55.1h-20.8v16c0,17.5-1.6,30.7-4.9,39.5c-4.4,12.2-14.3,23.2-29.6,32.9
				c-2.9-3.9-6-7.9-9.3-11.9c12.7-7.7,21.1-16.2,25.1-25.7C710.8,181,712.3,170.4,712.3,156.2z M689.9,45.4h176v36.4h-14.8V59H704.7
				v22.8h-14.8V45.4z M699.7,85.1h71.2v13.6h-71.2V85.1z M777.7,98.5h52.4V76h14.4v22.6h24.9v13.6h-24.9V169
				c0,16.1-8,24.2-24.1,24.3c-8.4,0.1-16.8,0.1-25.1,0c-0.5-2.5-1.5-7.5-2.9-15.2c8.6,0.6,16.8,0.9,24.7,0.8c8.7-0.1,13-4.4,13-12.8
				v-53.9h-52.4V98.5z M785.9,130.3l12.1-5.8c6.7,10.8,13.2,21.5,19.3,32.1L804,163C797.9,151,791.9,140.1,785.9,130.3z"/>
		</g>
	</g>
	<g>
		<g>
			
				<linearGradient id="SVGID_4_" gradientUnits="userSpaceOnUse" x1="370.1624" y1="153.0225" x2="370.1624" y2="354.8915" gradientTransform="matrix(1 0 0 -1 4.6806 382.8595)">
				<stop  offset="0" style="stop-color:#FFF3AD"/>
				<stop  offset="1" style="stop-color:#FFFFFF"/>
			</linearGradient>
			<path class="st3" d="M460.9,61.6h-83.4v16.8h16.7v16.8l-50.1,50.5V28h-66.7v16.8h33.4v185.1L460.9,61.6z M461.2,205.6v-61.9
				c0-4-1.4-7.4-4.1-10.1c-2.8-2.8-6.2-4.2-10-4.2h-19.7v12.8h9.9v63.5h-13.4v12.8h48.4v-12.8H461.2z"/>
		</g>
	</g>
</g>
<g>
	<g>
		<path class="st4" d="M49.6,142.1c-11.6-7.7-20.3-16.7-22-18.5l-2.6,3.2l76.4,113.4c6.3-0.6,12.6-1.5,18.7-2.5l-60.7-90
			C55.9,146,52.6,144,49.6,142.1z"/>
		<path class="st5" d="M123.9,239.8l-3,0.5c-6.3,1-12.6,1.9-18.8,2.5l-1.2,0.1L22.3,126.2l4.8-6l1.5,1.6c1.6,1.7,10.2,10.6,21.5,18
			c3.2,2.1,6.4,4,9.6,5.5l0.6,0.3L123.9,239.8z M102,237.6c4.8-0.5,9.6-1.1,14.4-1.9l-58-85.9c-3.1-1.6-6.3-3.4-9.4-5.5
			c-9.7-6.4-17.5-13.9-21-17.3l-0.3,0.4L102,237.6z"/>
	</g>
	<g>
		<path class="st6" d="M98.7,149.4c-0.4,0.2-0.7,0.2-0.7,0.3c-1.1,0.7-2.3,1.3-3.5,1.8c-11.6,4.9-24.4,1.6-35-3.6l60.7,90
			c20.5-3.4,40.1-8.7,58.6-16L117.1,52.7l-3.8,1.6C127.1,133.1,103.6,147.3,98.7,149.4z"/>
		<path class="st5" d="M181.4,223.5l-1.7,0.7c-18.5,7.3-38.3,12.7-58.9,16.1l-1.2,0.2l-66.3-98.2l6.4,3.2
			c14.4,7.1,26.9,7.7,37.1,1.9c0.4-0.2,0.6-0.2,0.9-0.3c4.6-2,27.1-15.7,13.6-92.7l-0.3-1.9l7-2.9L181.4,223.5z M120.6,235
			c19.3-3.2,37.9-8.3,55.4-15.1l-59.8-164l-0.6,0.3c14.7,86.3-15.5,95.6-16.8,96c-0.9,0.6-2.1,1.2-3.4,1.7c-8.8,3.7-19,3.4-30.3-1
			L120.6,235z"/>
	</g>
	<g>
		<path class="st7" d="M184.6,219.3c23.2-9.8,40.4-21,51.6-29.6l-18.6-96.3c-0.2,0.4-0.4,0.9-0.6,1.3c-5,10.6-11.5,14.6-14.9,16.1
			c-1.3,0.6-2.2,0.8-2.4,0.8c-0.5,0.3-1,0.5-1.5,0.7c-11.7,5-29.2-4-50.6-25.8c-14.9-15.3-27-32.1-28.8-34.5l-1.8,0.8l61.6,169.1
			C180.7,220.9,182.6,220.2,184.6,219.3z"/>
		<path class="st5" d="M185.6,221.8c-1.9,0.8-3.9,1.6-5.9,2.4l-1.9,0.7l-63.4-174l4.7-2l1.1,1.6c1.3,1.9,13.5,18.8,28.4,34.1
			c21.5,22,38.8,30.5,49.8,24.6l0.2-0.1l0.2,0c0.7-0.1,9.7-2.1,16.2-16l3-6.8l20.3,105l-0.9,0.7C227.1,200,209.5,211.7,185.6,221.8z
			 M179.6,218.5c1.3-0.5,2.6-1.1,3.9-1.6c23-9.7,39.9-20.8,50.4-28.7l-17-88.1c-6.8,11.6-14.7,13.6-16.2,14
			c-12.4,6.7-31.2-2.4-54.1-25.8c-10.9-11.2-20.3-23.2-25.4-29.8L179.6,218.5z"/>
	</g>
	<g>
		<path class="st8" d="M252,175.9l-26.4-136l-2-0.2c1.7,22.8-0.4,40.9-6,53.7l18.6,96.3C245.8,182.3,251.1,176.9,252,175.9z"/>
		<path class="st5" d="M235,193.9L215.4,92.5l0.3-0.7c5.5-12.4,7.5-30.1,5.8-52.4l-0.2-2.3l5.7,0.5l27.1,139.7l-0.7,0.8
			c-1,1-6.3,6.5-16,13.9L235,193.9z M219.8,94.3l17.6,91.2c6.6-5.2,10.7-9.2,12.4-10.9L226.2,53.2C226.4,70,224.2,83.8,219.8,94.3z"
			/>
	</g>
	<g>
		<path class="st9" d="M175.5,196.6c-21.6,9.1-44.9,15.4-69.5,18.8l-27.8-41.3c8.3,1.3,16.9,0.7,25.2-2.8c1.3-0.6,2.6-1.2,3.9-1.9
			c0.1,0,0.2-0.1,0.4-0.2c7.7-3.2,28.6-17.1,27.6-71.4c20.9,22.1,49,43.9,71.8,34.2c0.3-0.1,0.7-0.3,1-0.5c0.8-0.2,1.8-0.6,2.9-1
			c3.4-1.5,8.3-4.3,13.2-9.7l8,41.3C223.1,170.2,204.2,184.5,175.5,196.6z"/>
	</g>
	<g>
		<g>
			<defs>
				<path id="SVGID_5_" d="M174.7,196.9c-21,8.9-43.7,14.9-67.6,18l-27.6-41.4c8.2,1.4,16.5,0.9,24.6-2.5c1.3-0.5,2.6-1.2,3.8-1.8
					c0.1,0,0.2-0.1,0.4-0.2c7.5-3.2,27.8-16.8,26.3-70.8c20.7,22.2,48.2,44.2,70.5,34.8c0.3-0.1,0.7-0.3,1-0.5
					c0.8-0.2,1.8-0.6,2.8-1c3.4-1.4,8.1-4.2,12.7-9.5l8.2,41.2C220.9,171.1,202.5,185.2,174.7,196.9z"/>
			</defs>
			<clipPath id="SVGID_6_">
				<use xlink:href="#SVGID_5_"  style="overflow:visible;"/>
			</clipPath>
			<g class="st10">
				<g>
					<polygon class="st7" points="106.1,153.1 219.8,191 219.9,179.8 106.2,141.9 					"/>
				</g>
				<g>
					<polygon class="st7" points="113.9,105.9 113.7,132.5 246.2,176.6 246.4,150 					"/>
				</g>
			</g>
		</g>
	</g>
	<g>
		<path class="st5" d="M97.8,149.2c0,0,30.5-8,15.1-95.3l4.1-1.7l-0.2-0.5l-4.3,1.8l0.1,0.4c13.8,78.4-9.4,92.5-14.2,94.5
			c-0.4,0.2-0.7,0.3-0.7,0.3l0,0l0,0c-1.1,0.7-2.3,1.3-3.5,1.8c-11.9,5-24.9,1.4-35.6-4.2l0.5,0.8C71.2,153.3,85.3,156.4,97.8,149.2
			z"/>
	</g>
	<g>
		<path class="st5" d="M120.5,238.2l0.3,0.4c20.4-3.4,39.9-8.7,58.3-16l-0.2-0.5C162.3,228.8,142.8,234.5,120.5,238.2z"/>
	</g>
	<g>
		<path class="st5" d="M178.9,222.2l0.2,0.5c2-0.8,3.9-1.6,5.9-2.4c23-9.7,40.1-20.9,51.4-29.5l-0.1-0.5
			C224.2,199.6,205.1,211.9,178.9,222.2z"/>
	</g>
	<g>
		<path class="st5" d="M222.8,38.7l0,0.4c1.7,22.3-0.2,40-5.5,52.7l0.1,0.8c4.6-10.6,7.7-27.3,5.8-53.4l2.7,0.2l26.5,136.7
			c0,0-5.3,5.9-16.1,14.1l0.1,0.5c10.8-8.2,16.2-14.1,16.3-14.2l0.1-0.1L226.2,39L222.8,38.7z"/>
	</g>
	<g>
		<path class="st5" d="M119,51.3c0,0,52.5,75,80.6,59.7c0,0,10.7-1.7,17.9-18.4l-0.1-0.8c-0.3,0.7-0.6,1.5-1,2.2
			c-4.9,10.4-11.3,14.3-14.6,15.8c-1.4,0.6-2.4,0.8-2.4,0.8l0,0l0,0c-0.5,0.3-1,0.5-1.5,0.7c-14.5,6.1-35.1-10.5-49.8-25.6
			c-16-16.4-28.7-34.5-28.8-34.6l-0.2-0.3l-2.2,0.9l0.2,0.5L119,51.3z"/>
	</g>
	<g>
		<path class="st5" d="M223.6,39.8l2,0.2l26.4,136c-0.9,0.9-6.2,6.4-15.8,13.8l0.1,0.6c10.8-8.2,16.1-14.1,16.1-14.1L225.9,39.5
			l-2.7-0.2c1.9,26.1-1.2,42.8-5.8,53.4l0.1,0.8C223.3,80.6,225.3,62.6,223.6,39.8z"/>
	</g>
	<g>
		<path class="st5" d="M199.5,111.1c-28,15.3-80.6-59.7-80.6-59.7l-2,0.8l0.2,0.5l1.8-0.8c1.7,2.4,13.8,19.2,28.8,34.5
			c21.4,21.9,38.8,30.8,50.6,25.8c0.5-0.2,1-0.5,1.5-0.7c0.2,0,1.1-0.2,2.4-0.8c3.4-1.4,9.8-5.4,14.9-16.1c0.2-0.4,0.4-0.8,0.6-1.3
			l-0.1-0.8C210.3,109.4,199.5,111.1,199.5,111.1z"/>
	</g>
	<g>
		<path class="st5" d="M120.2,237.7l0.3,0.5c22.4-3.7,41.8-9.4,58.4-16l-0.2-0.5C160.3,229,140.6,234.4,120.2,237.7z"/>
	</g>
	<g>
		<path class="st5" d="M184.6,219.3c-1.9,0.8-3.9,1.6-5.8,2.4l0.2,0.5c26.2-10.3,45.2-22.6,57.4-31.9l-0.1-0.6
			C224.9,198.3,207.7,209.6,184.6,219.3z"/>
	</g>
	<g>
		<path class="st5" d="M94.5,151.4c1.2-0.5,2.4-1.1,3.5-1.8c0.1,0,0.4-0.1,0.7-0.3c4.9-2.1,28.4-16.3,14.6-95.1l3.8-1.6l-0.2-0.5
			l-4.1,1.7c15.4,87.3-15.1,95.3-15.1,95.3c-12.5,7.3-26.6,4.1-38.9-2.1l0.5,0.7C70.1,153,82.8,156.3,94.5,151.4z"/>
	</g>
	<g>
		<path class="st5" d="M174.7,196.9c-21.6,9.1-45,15.4-69.5,18.8l-0.2,0l-28.6-42.4l0.8,0.1c9,1.4,17.4,0.5,25-2.8
			c1.3-0.6,2.6-1.2,3.9-1.9c0.1-0.1,0.3-0.1,0.4-0.2c3.7-1.6,10.9-5.8,16.9-16.4c7.4-13,10.9-31.3,10.5-54.6l0-0.9l0.6,0.6
			c19.8,21,48.4,43.9,71.4,34.1c0.3-0.1,0.7-0.3,1-0.5c1-0.3,1.9-0.6,2.9-1c3.3-1.4,8.2-4.2,13.1-9.6l0.5-0.5l8.2,42.5l-0.2,0.1
			C222.7,170.1,203.6,184.7,174.7,196.9z M105.1,214.7c24.4-3.4,47.7-9.7,69.2-18.7c28.7-12.1,47.7-26.6,56.5-34.2l-7.8-40.1
			c-4.8,5.2-9.6,7.9-12.8,9.2c-1,0.4-2,0.8-2.9,1c-0.3,0.1-0.7,0.3-1,0.5c-23.2,9.8-51.6-12.8-71.6-33.7c0.3,23-3.3,41.2-10.6,54.2
			c-6.2,10.8-13.4,15.1-17.2,16.7c-0.1,0.1-0.3,0.1-0.4,0.2c-1.2,0.7-2.6,1.3-3.9,1.9c-7.5,3.2-15.8,4.2-24.5,2.9L105.1,214.7z"/>
		<path class="st5" d="M175.7,199.4c-21.7,9.2-45.2,15.5-69.9,18.9l-1.2,0.2l-1.1-1.3l-31.7-47l5.1,0.8c10.2,1.6,19.8,0,28-4.5
			l0.1,0l0.3-0.1c0,0,0,0,0,0c3.7-1.6,10.5-5.6,16.4-15.8c7.2-12.6,10.6-30.6,10.2-53.3l-0.1-5.5l3.8,4
			c19.4,20.4,47.1,42.8,69.3,33.5l1-0.4c1.1-0.3,2-0.7,3-1.1c3.1-1.3,7.8-4,12.5-9.2l3.1-3.4l9.5,48.9l-0.9,0.7
			C224,172.4,204.8,187.1,175.7,199.4z M105.6,212c23.9-3.4,46.6-9.6,67.6-18.5c27.7-11.7,46.2-25.5,55.3-33.2l-6.6-33.9
			c-4.1,3.7-7.9,5.8-10.6,7c-1,0.4-2.1,0.8-3.1,1.1l-0.9,0.4c-22.9,9.7-50.5-10.8-70.6-31.2c-0.2,21.4-3.8,38.5-10.9,50.9
			c-6.4,11.2-14,15.7-17.9,17.4l-0.4,0.2c-1.1,0.6-2.5,1.3-3.8,1.9c-6.6,2.8-13.7,3.9-21.2,3.4L105.6,212z"/>
	</g>
	<g>
		
			<ellipse transform="matrix(0.9212 -0.3892 0.3892 0.9212 -7.0542 45.8686)" class="st11" cx="109.7" cy="40.3" rx="14.4" ry="19.8"/>
		<path class="st5" d="M118.4,61c-8.3,3.5-18.9-2.9-23.8-14.3c-4.8-11.4-2-23.5,6.3-27s18.9,2.9,23.8,14.3
			C129.5,45.4,126.7,57.5,118.4,61z M103,24.5c-6.3,2.7-8.5,11.9-4.8,20.6c3.7,8.7,11.8,13.6,18.2,10.9s8.5-11.9,4.8-20.6
			C117.5,26.8,109.4,21.9,103,24.5z"/>
	</g>
	<g>
		
			<ellipse transform="matrix(0.9212 -0.3892 0.3892 0.9212 -43.8368 16.6011)" class="st11" cx="19.1" cy="116.5" rx="11.7" ry="15.1"/>
		<path class="st5" d="M26,132.8c-6.9,2.9-15.6-2-19.4-11c-3.8-9-1.3-18.7,5.6-21.6c6.9-2.9,15.6,2,19.4,11
			C35.4,120.2,32.9,129.9,26,132.8z M14.2,105c-5,2.1-6.8,9-4.2,15.3s8.9,9.7,13.9,7.6s6.8-9,4.2-15.3
			C25.4,106.4,19.2,102.9,14.2,105z"/>
	</g>
	<g>
		
			<ellipse transform="matrix(0.9212 -0.3892 0.3892 0.9212 5.1429 89.5977)" class="st11" cx="223.7" cy="32.1" rx="11.7" ry="15.1"/>
		<path class="st5" d="M230.6,48.4c-6.9,2.9-15.6-2-19.4-11c-3.8-9-1.3-18.7,5.6-21.6c6.9-2.9,15.6,2,19.4,11
			C240,35.8,237.5,45.5,230.6,48.4z M218.9,20.6c-5,2.1-6.8,9-4.2,15.3s8.9,9.7,13.9,7.6c5-2.1,6.8-9,4.2-15.3
			C230,22,223.8,18.5,218.9,20.6z"/>
	</g>
</g>
</svg>
