<?xml version="1.0" encoding="utf-8"?>
<!-- Generator: Adobe Illustrator 21.1.0, SVG Export Plug-In . SVG Version: 6.00 Build 0)  -->
<svg version="1.1" id="图层_1" xmlns="http://www.w3.org/2000/svg" xmlns:xlink="http://www.w3.org/1999/xlink" x="0px" y="0px"
	 viewBox="0 0 892 276" style="enable-background:new 0 0 892 276;" xml:space="preserve">
<style type="text/css">
	.st0{fill:url(#SVGID_1_);stroke:#B58D57;stroke-width:2;stroke-miterlimit:10;}
	.st1{fill:url(#SVGID_2_);}
	.st2{fill:url(#SVGID_3_);}
	.st3{fill:url(#SVGID_4_);}
	.st4{fill:#D3BB9A;}
	.st5{fill:#C4A479;}
	.st6{fill:#B58D57;}
	.st7{fill:#FFFFFF;}
</style>
<linearGradient id="SVGID_1_" gradientUnits="userSpaceOnUse" x1="534.8005" y1="-9.1839" x2="534.8005" y2="257.135" gradientTransform="matrix(1 0 0 -1 0 262)">
	<stop  offset="0" style="stop-color:#CBA05E"/>
	<stop  offset="1" style="stop-color:#E6C78B"/>
</linearGradient>
<path class="st0" d="M885.2,4.9H184.4v16.3c1.1,0.9,2.3,1.9,3.4,2.8L208,40.5l2.8,17.4c0.8,5.1,1.6,9.7,2.4,14.2
	c3.4,18.6,6.7,35.8,9.9,52.7c3.4,18,6.9,36.1,10.4,53.9c0.3,1.4,0.5,2.8,0.8,4.2l3.2,15.9l-8.4,16.5c-8.6,16.9-15.6,30.8-22,43.6
	l-6.1,12.2h684.3V4.9z"/>
<g>
	<g>
		<g>
			
				<linearGradient id="SVGID_2_" gradientUnits="userSpaceOnUse" x1="561.1979" y1="19.779" x2="561.1979" y2="224.303" gradientTransform="matrix(1 0 0 -1 0 262)">
				<stop  offset="0" style="stop-color:#FFF3AD"/>
				<stop  offset="1" style="stop-color:#FFFFFF"/>
			</linearGradient>
			<path class="st1" d="M485.5,122.2H553v-17.8h-91.2V90.5h55.4V70.8h-49.1V56.9h49.1V37.7h15.5v19.2h56.4V37.7h15.5v19.2h49.1v13.9
				h-49.1v19.6h55.8v13.9h-92v17.8h67.7v84.7h-15.3v-6.1H500.9v6.1h-15.3L485.5,122.2L485.5,122.2z M532.2,204.6l9,12.9
				c-23.7,10.2-47.1,18.5-70.1,24.7c-1.9-4.1-4.3-8.7-7.2-13.9C488.4,222.3,511.2,214.4,532.2,204.6z M500.9,154.9H553v-19.2h-52.2
				V154.9z M500.9,187.2H553V168h-52.2V187.2z M532.8,90.5h56.4V70.8h-56.4V90.5z M620.9,135.7h-52.4v19.2h52.4L620.9,135.7
				L620.9,135.7z M568.6,187.2h52.4V168h-52.4V187.2z M578.6,216.9l5.9-12.3c28.9,7.6,53.2,14.9,73,21.7l-6.5,13.9
				C625.5,231.6,601.3,223.8,578.6,216.9z"/>
			
				<linearGradient id="SVGID_3_" gradientUnits="userSpaceOnUse" x1="770.1159" y1="29.798" x2="770.1159" y2="222.8689" gradientTransform="matrix(1 0 0 -1 0 262)">
				<stop  offset="0" style="stop-color:#FFF3AD"/>
				<stop  offset="1" style="stop-color:#FFFFFF"/>
			</linearGradient>
			<path class="st2" d="M675.3,217.1H762v-49.9h-73.2v-14.9H762v-28.6h-53.2v-14.3c-9.7,6.1-20.2,12.3-31.5,18.4
				c-2.9-5.2-6.3-10.3-10.2-15.3c45.4-21.3,77.5-45.7,96.3-73.2h22.3l-4.7,5.7c21.7,27.7,52.4,49.2,92,64.6
				c-3.7,5.2-7.3,10.6-10.8,16.4c-10.6-4.5-20.9-9.9-30.9-16.2v13.9h-53v28.6h72.8v14.9h-72.8v49.9h87.1v15.1H675.3V217.1z
				 M698.2,179.6l12.1-9.6c10,10.1,19.7,20.6,29.2,31.5l-13.9,11C717.5,201.8,708.3,190.8,698.2,179.6z M770.4,56.5
				c-14,17.7-34.3,35.1-60.7,52.2h120.1C808.5,95.2,788.7,77.8,770.4,56.5z M799.5,203.2c11-11.5,20.4-22.6,28-33.5l14.3,9.2
				c-9.5,11.9-19.6,23.3-30.1,34.2L799.5,203.2z"/>
		</g>
	</g>
	<g>
		<g>
			
				<linearGradient id="SVGID_4_" gradientUnits="userSpaceOnUse" x1="456.1529" y1="120.4622" x2="456.1529" y2="335.8822" gradientTransform="matrix(1 0 0 -1 -115.0774 366.1962)">
				<stop  offset="0" style="stop-color:#FFF3AD"/>
				<stop  offset="1" style="stop-color:#FFFFFF"/>
			</linearGradient>
			<path class="st3" d="M432.9,66.2h-89v17.9h17.8v17.9L308.2,156V30.3H237v17.9h35.6v197.5L432.9,66.2z M433.2,219.9v-66.1
				c0-4.3-1.5-7.9-4.4-10.8c-3-3-6.6-4.5-10.7-4.5h-21v13.7h10.6v67.7h-14.3v13.7h51.7v-13.7L433.2,219.9L433.2,219.9z"/>
		</g>
	</g>
</g>
<g>
	<polyline class="st4" points="39.4,25.5 125.2,7.7 180.2,54.6 207.2,193.8 175.9,254.1 95.9,268.3 32.8,213.9 8.5,79.6 	"/>
	<polygon class="st5" points="207.2,193.8 207.2,193.6 166.4,173 62.7,113.1 9.1,82.4 32.8,213.9 95.9,268.3 175.9,254.1 	"/>
	<path class="st6" d="M98.2,267.4c0.2-1,4.7-50.9,4.7-50.9L64,184.4l-31,27.7"/>
	<polygon class="st4" points="70.2,76.2 51.8,107.5 64.7,184.5 103,217.1 149.5,205.9 166.4,173 151.8,91.2 118.8,66.7 	"/>
	<path class="st7" d="M180.2,52.7l-29.3,39.5c0,0-31.5-25.5-31.5-26.3s8.2-57.4,8.2-57.4"/>
	<path class="st7" d="M57.9,97.2L165.1,166l1.2,7l-5.9,11.6L53.1,115.7l-1.4-8.2L57.9,97.2z M118.8,66.7l-48.6,9.6l-3.7,6.3
		l94.6,60.7l-9.3-52.1L118.8,66.7z"/>
	<g>
		<path class="st6" d="M171.2,42.1c-3.9-3.2-7.8-6.4-11.6-9.6c-8.5-7.1-17.1-14.2-25.6-21.3l-7.7-6.4l-5.7,1
			c-15,2.8-30.5,5.6-46,8.5c-6.2,1.2-12.5,2.4-18.7,3.5l-14.6,2.8l-3.8,6c-8.2,13.2-16.8,27-25.6,41.2L5.2,79l1.4,7.3
			c0.4,1.9,0.7,3.8,1.1,5.8c0.9,4.7,1.9,9.7,2.7,14.4c2.8,16.1,5.9,33.5,9.4,53.2c2.8,15.4,5.7,31.5,8.9,49.3l1.2,6.6l6.6,5.6
			c11.2,9.6,22.4,19.1,33.7,28.6c4.5,3.8,9.1,7.7,13.7,11.5l11.8,10l15.4-3.1c5.9-1.2,11.7-2.4,17.6-3.5c14.7-2.9,29.4-5.8,44.2-8.7
			l6.3-1.2l4.6-9.2c6.4-12.8,13.5-26.8,22.1-43.8l4.3-8.4l-1.4-7c-0.3-1.5-0.6-2.9-0.9-4.4c-3.5-17.8-7-36-10.4-54.1
			c-3.2-16.9-6.4-34.2-9.9-52.8c-0.9-4.8-1.7-9.5-2.5-14.8l-1.3-7.8L171.2,42.1z M178.5,56.2l0.6,3c0.9,4.7,1.9,9.7,2.7,14.4
			c2.8,16.1,5.9,33.5,9.4,53.2c3.1,17.5,6.4,35.3,9.6,52.9c0.9,4.8,1.7,9.7,2.6,14.7c-7.7,14.8-15.6,30-24,46.4
			c-0.8,1.6-1.7,3.3-2.5,4.9l-2.1,4.2c-15.1,2.8-30.2,5.6-45.1,8.4c-8.4,1.6-16.7,3.2-25.1,4.8l-7.1,1.4l-7.1-5.8
			c-4.9-4-9.8-8.1-14.7-12.1c-12.3-10.2-25.2-20.9-39.4-32.8c-3.5-17.8-6.9-35.7-10.2-53.1c-3.2-16.8-6.5-34.5-9.9-52.8
			c-1-5.3-1.9-10.8-2.7-16.1c-0.6-3.9-1.2-7.8-1.9-11.6l2-3.3c0.8-1.4,1.6-2.7,2.5-4.1C24.9,58.2,34,43.1,43.9,27l0.2-0.4l8.3-1.7
			c7.1-1.4,14.2-2.9,21.3-4.3c15.7-3.1,32.4-6.4,51-10c9.8,8.4,19.6,16.7,29.5,25c6,5.1,12,10.2,18.1,15.2L178.5,56.2z"/>
		<path class="st6" d="M146.9,84.5c-2.3-1.9-4.5-3.7-6.7-5.6c-4.9-4.1-9.9-8.2-14.8-12.3l-4.9-4.1l-3.8,0.7
			c-8.9,1.6-17.9,3.3-26.8,5c-3.6,0.7-7.2,1.4-10.8,2L70,72l-2.4,3.9c-5,8-9.9,16-14.9,24l-4.2,6.8l1.5,8c0.6,2.8,1.1,5.6,1.6,8.4
			c1.8,10.3,3.6,20.7,5.5,31c1.7,9.6,3.5,19.1,5.2,28.7l0.8,4.2l4.1,3.5c6.5,5.6,13.1,11.1,19.6,16.7c2.6,2.2,5.3,4.4,7.9,6.6
			l7.3,6.2l9.8-2c3.3-0.7,6.6-1.3,9.9-2c8.6-1.7,17.1-3.4,25.7-5l4.1-0.8l2.9-5.8c4.3-8.5,8.6-17,12.9-25.5l2.7-5.2l-0.9-4.3
			c-0.2-0.9-0.4-1.8-0.5-2.7c-2-10.5-4.1-21-6-31.5c-1.9-10.2-3.9-20.5-5.8-30.7c-0.5-2.8-1-5.7-1.5-8.6l-0.8-4.9L146.9,84.5z
			 M162.6,165.7c0.5,2.7,1,5.5,1.4,8.2c-4.6,8.9-9.2,17.8-13.8,26.8l-2.5,4.9c-8.6,1.6-17.2,3.2-25.8,4.8c-5.1,1-10.1,1.9-15.2,2.9
			l-3.2,0.6l-3.7-3c-2.9-2.4-5.7-4.7-8.6-7.1c-7.6-6.3-15.1-12.6-22.7-18.9c-2-10.2-3.9-20.4-5.9-30.6c-1.9-10.2-3.9-20.5-5.8-30.7
			c-0.6-3.1-1.1-6.2-1.6-9.3c-0.3-2.1-0.7-4.3-1.1-6.4l2.4-4c5.4-8.9,10.7-17.7,16.1-26.6l4.7-0.9c4-0.8,8.1-1.6,12.1-2.4
			c9.7-1.9,19.5-3.8,29.2-5.7c5.6,4.8,11.2,9.5,16.8,14.3c3.4,2.9,6.8,5.7,10.2,8.6l3.7,3.1l0.3,1.4c0.5,2.8,1.1,5.6,1.6,8.3
			c1.8,10.3,3.6,20.7,5.5,31C158.8,145.1,160.7,155.4,162.6,165.7z"/>
		<g>
			<path class="st6" d="M63.1,181.3c-5,4.4-10.1,8.9-15,13.4c-4.9,4.5-9.9,9-14.7,13.6c0,0.1,0,0.1,0,0.2c0.3,1.7,0.4,3.4,0.4,5
				c5.5-5,11-10,16.6-14.9c5.3-4.7,10.7-9.3,16.1-13.9C64.8,184.1,63.4,182.9,63.1,181.3z"/>
			<path class="st6" d="M101.8,215.7c-0.3-0.2-0.6-0.4-0.9-0.6c-0.6,10.5-1.2,21-2.3,31.4c-0.7,6.1-1.4,12.3-2.3,18.4
				c0.3,0,0.7,0,1,0.1c0.4,0.1,1.6,0.7,2.1,1c0.9-6.7,1.7-13.3,2.5-20c1.1-9.8,2.3-19.8,3.1-29.8
				C104.1,216.5,102.8,216.3,101.8,215.7z"/>
			<path class="st6" d="M121.1,66c1.2-7.8,2.3-15.6,3.3-23.4c1.3-9.5,2.4-19,3.5-28.5c0-0.3,0.1-0.7,0.1-1c-1.2,0.1-2.3-2.3-2.9-3.6
				c-0.1,0.7-0.3,3.2-0.4,3.9c-1,10-2.1,19.9-3.3,29.8c-0.9,7.3-1.8,14.5-2.8,21.8C119.6,65,120.5,65.4,121.1,66z"/>
			<path class="st6" d="M9.1,80.9c-0.1,1.1-0.3,2-0.7,2.8c8.8,5.2,17.7,10.4,26.5,15.7c5.5,3.3,11,6.6,16.5,9.9
				c0.1-1.1,0.6-2.2,1.4-3.5c-5.1-2.9-10.2-5.7-15.3-8.6C28,91.7,18.6,86.3,9.1,80.9z"/>
			<path class="st6" d="M177.4,53.2l-11,14.6c-4.6,6.1-9.2,12.2-13.8,18.3c-0.8,1.1-1.7,2.2-2.5,3.3c1.3-0.1,2.5,0.6,3.1,1.6
				c0.9-1.2,1.9-2.5,2.8-3.7c5-6.4,9.9-12.7,14.9-19.1c3.3-4.2,6.5-8.4,9.8-12.6C179.6,54.9,178.5,54,177.4,53.2z"/>
			<path class="st6" d="M148.8,207.4c-0.5,0.3-1,0.5-1.5,0.8c-0.5,0.3-1,0.3-1.3,0.1c6.7,10.5,13.5,21,19.9,31.7
				c2.6,4.4,5.2,8.9,7.7,13.4c0,0,0,0,0,0c0.2-0.5,0.4-0.9,0.6-1.4c0.6-1.3,1.6-2.1,2.6-2.5c-2.5-3.9-4.9-7.8-7.4-11.7
				c-6.5-10.4-13-20.8-19.9-31C149.4,207,149.1,207.3,148.8,207.4z"/>
			<path class="st6" d="M166.9,170.8c1,1.3,0.4,2.7-0.7,3.5c8.1,4.2,16.3,8.3,24.3,12.5c4.3,2.3,8.9,4.4,13.4,6.6c0-0.1,0-0.2,0-0.3
				c-0.1-0.9,0.2-1.7,0.7-2.5c-3.8-2.1-7.6-4.2-11.4-6.1C184.4,179.9,175.7,175.2,166.9,170.8z"/>
			<path class="st6" d="M41.4,23.7c-0.2,1-0.5,2.1-1,3.1c-0.1,0.1-0.1,0.2-0.2,0.3c6.8,12,13.9,23.9,20.5,36
				c2.9,5.4,5.8,10.7,8.7,16.1c0.1-0.7,0.3-1.5,0.4-2.2c0.2-0.8,0.7-1.5,1.4-2.1c-2.3-4.2-4.7-8.4-7-12.6
				c-7.3-13-14.5-26.3-22.1-39.3C42,23.4,41.7,23.6,41.4,23.7z"/>
		</g>
	</g>
</g>
</svg>
