<?xml version="1.0" encoding="utf-8"?>
<!-- Generator: Adobe Illustrator 21.1.0, SVG Export Plug-In . SVG Version: 6.00 Build 0)  -->
<svg version="1.1" id="图层_1" xmlns="http://www.w3.org/2000/svg" xmlns:xlink="http://www.w3.org/1999/xlink" x="0px" y="0px"
	 viewBox="0 0 891 251" style="enable-background:new 0 0 891 251;" xml:space="preserve">
<style type="text/css">
	.st0{fill:url(#SVGID_1_);stroke:#D68900;stroke-width:2;stroke-miterlimit:10;}
	.st1{fill:#FFCB99;}
	.st2{fill:#FFFFFF;}
	.st3{fill:#FFB066;}
	.st4{fill:#FF9633;stroke:#F29972;stroke-miterlimit:10;}
	.st5{fill:#FFAA00;}
	.st6{fill:#D68900;}
	.st7{fill:url(#SVGID_2_);}
	.st8{fill:url(#SVGID_3_);}
	.st9{fill:url(#SVGID_4_);}
</style>
<linearGradient id="SVGID_1_" gradientUnits="userSpaceOnUse" x1="552.928" y1="81.4101" x2="552.928" y2="323.762" gradientTransform="matrix(1 0 0 -1 0 328)">
	<stop  offset="8.060000e-02" style="stop-color:#FE9E00"/>
	<stop  offset="0.8011" style="stop-color:#F9C200"/>
</linearGradient>
<path class="st0" d="M383.3,4.2H221.1v4.9c2.6,0.5,5.2,0.9,7.7,1.4l18.4,3.3l14.1,21.5c4,6.1,8,12.2,12,18.2l2.4,3.5
	c3.1,4.6,6.3,9.4,9.4,14.3l8.2,13.2l-3.8,16.9c-0.3,1.2-0.5,2.5-0.8,3.9c-1.6,8.3-2.7,17.3-3.8,26l-0.2,1.8
	c-0.7,5.5-1.5,11.9-2.4,18.2l-1.9,12l-13,17.2c-4.9,6.5-10,13.3-15,20c-2.6,3.5-5.2,7.1-7.5,10.3l0.4,0.4l-9,11.1l-15.1,9.3
	c-0.1,0-0.1,0.1-0.2,0.1v14.9h162.2h501.4V4.2H383.3z"/>
<g>
	<path class="st1" d="M217.1,203.3c0,0,38.6-48.7,39.1-50c0.4-1.3,10.5-64.6,10.5-64.6l-34.2-51.6l-44.4-7.5l-35.5,23.1l-23.1-37.2
		L72,7.5L29.7,41.2L7.4,89.6l11.1,65.9L63,210l53.2,32.9l26.9-4.4c0,0,28.3-7.1,29.6-7.6"/>
	<g>
		<path class="st2" d="M266.7,88.8l-34.2-51.6l-44.4-7.5L180,79.4c0,0,47.4,21.8,48.7,20.9c1-0.6,25.4-6.7,37.8-9.8
			C266.6,89.4,266.7,88.8,266.7,88.8z"/>
		<path class="st2" d="M129.4,15.5L72.5,7.6c0.6,9.7,5.5,75.2,5.5,75.2l37.1-23.5c0,0,10.8-32.5,14.8-42.9L129.4,15.5z"/>
	</g>
	<path class="st3" d="M196.4,182.9L58.3,73.2L28.3,44.1L7.4,89.6l11.1,65.9L63,210l53.2,32.9l26.9-4.4c0,0,28.3-7.1,29.6-7.6
		l44.4-27.6c0,0,0.1-0.2,0.4-0.5L196.4,182.9z"/>
	<polygon class="st4" points="18.8,155.8 63,210 116.3,242.9 118.2,242.6 132.8,192.3 60.2,140.2 	"/>
	<polygon class="st1" points="212.3,78.5 180.4,74.8 156.2,86.4 140.6,107.5 138,83 115.5,54.5 78,52.3 56.1,71.3 45.2,100.4 
		52.6,144.2 88.5,181.8 129.2,205.4 163.8,197.9 196.4,182.9 220.3,143.6 227.4,99.2 	"/>
	<path class="st2" d="M89.1,52.9l26.4,1.6L138,83l0.2,1.8L89.1,52.9z M180.4,74.8l-24.2,11.7l-5.1,6.8l69.9,45.4l6.3-39.4l-9.4-13
		l-13.4-8.7L180.4,74.8z M55.9,71.7l149.2,96.9l9.1-14.9l-72.8-47.3l-0.8,1.1l-0.2-1.8L69.5,59.6L56.1,71.3L55.9,71.7z"/>
	<path class="st5" d="M136.2,83.1c0.3-1.5,15.6-28.5,15.6-28.5l0.6,37.3l-12.5,17.7"/>
	<path class="st6" d="M228,195.8l-1.2,0.6c2.4-3.3,5-7,7.7-10.6c5.1-6.8,10.3-13.8,15.3-20.5l9.2-12.2l0.9-5.9
		c0.9-6.1,1.7-12.3,2.3-17.6l0.2-1.7c1.1-9.1,2.3-18.4,4-27.6c0.3-1.6,0.6-3.1,1-4.7l1.7-7.5l-3-4.9c-3-4.7-6.1-9.4-9.1-13.9
		l-2.4-3.6c-4.2-6.3-8.4-12.7-12.5-19L234,34.6l-8.6-1.5c-3.6-0.6-7.1-1.3-10.7-1.9c-5.6-1-11.2-1.9-16.7-2.9
		c-0.2-0.3-0.6-0.5-0.9-0.5c-0.5-0.1-1-0.2-1.4-0.3l-0.9-0.2l-6.2-1.7l-0.2,0.1c-0.2,0.1-0.3,0.3-0.4,0.5L179,32
		c-2.4,1.5-4.7,3-7.1,4.6c-6.4,4.1-12.8,8.3-19.2,12.5c-3.8-5.5-7.2-11.5-10-16.6c-0.8-1.5-1.6-3-2.4-4.4c-1.9-3.5-3.8-7-5.8-10.5
		l-3.8-6.2l-9-1c-5.8-0.6-11.8-1.3-17.7-2C99,7.7,93.8,7,88.8,6.4C85.4,5.9,81.9,5.4,78.5,5l-6.2-0.8l-5.5,4.2
		c-10.5,8-21.2,16.5-31.8,25.2l-5.6,4.7l-4.6,10l-20,41.2l1.3,6.3c2.5,12.7,4.7,26.1,6.9,42c0.4,3.3,0.9,6.6,1.4,9.9l1,6.4l5.7,7.2
		c3.1,3.9,6.4,7.8,9.5,11.5c3.1,3.7,6.3,7.6,9.4,11.4l4.7,5.8c3.1,3.8,6.1,7.5,9.2,11.3l7.7,9.4l12,8c2,1.3,4.1,2.6,6.1,3.9
		c3.1,2,6.1,4,9.2,5.9c7.2,4.7,14.9,9.6,22.9,14.6l5.3,3.3l6.6-1.6c2.6-0.6,5.2-1.3,7.8-2c4.3-1.1,8.8-2.2,13.1-3.2
		c3.4-0.8,6.8-1.5,10.1-2.3c2.5-0.6,5.1-1.1,7.6-1.7l13.2-3.1l7-4.4c10.2-6.6,19.2-12.3,27.5-17.4l11.7-7.2L228,195.8z M214.1,203.4
		c-16.8,9.3-31.4,18-44.7,26.4c-4,0.9-8,1.8-12,2.8c-4.6,1.1-9.2,2.1-13.8,3.2c-5,1.1-10.2,2.1-15.1,3.1c-3.3,0.6-6.7,1.3-10,2
		c-10.7-6.3-20.4-12.2-29.7-17.9c-5.9-3.7-11.8-7.7-17.6-11.5c-2-1.3-4-2.7-6-4c-5.5-6.7-11.1-13.4-16.6-20.1
		c-3.7-4.4-7.4-9-11-13.4c-5.4-6.7-11-13.6-16.6-20.2c-1-6.6-2-13.4-2.8-20L18,133c-0.3-2.3-0.6-4.5-0.9-6.8
		c-1.6-12.4-3.3-25.2-6.5-37.5l0.4-0.9c1.4-2.9,2.7-5.9,4.1-8.8l12.1-26.1c1-2.1,2-4.2,3.2-6.4l1.2-2.4c13-10.9,26.7-21.9,41.7-33.7
		c4.9,0.6,9.9,1.2,14.7,1.8c5,0.6,10.1,1.2,15.2,1.9c5.9,0.8,11.8,1.6,17.6,2.4c2.7,0.4,5.4,0.8,8.1,1.2c2.1,3.8,4.2,7.7,6.2,11.6
		l2.2,4.2c2.9,5.4,6.3,11.6,10.2,17.4c0.3,0.5,0.7,1,1,1.4l3.3,4.2l3.9-2.6c6.2-4.2,11.9-8,17.4-11.6c5.1-3.4,10.4-6.7,15.5-9.9
		l2.1-1.3c7.8,1.6,15.6,3.2,23.4,4.8c3.6,0.7,7.2,1.5,10.8,2.3c2.7,0.6,5.3,1.1,8,1.7l2,3.1c9.8,15.4,19.9,31.4,28.9,47.7l-0.1,0.4
		c-2.4,11.9-5,24.2-6.7,36.5c-1.4,10.1-3.3,19.8-4.9,28l-0.6,0.7c-6.6,8.3-13.3,16.8-19.7,25l-1,1.3c-2.5,3.2-5.1,6.4-7.6,9.7
		C220,196,217,199.7,214.1,203.4z"/>
	<path class="st6" d="M201,177c6.6-9.7,13.5-19.7,20-29.7l3.4-5.3l0.6-4c0.3-2.2,0.5-4.3,0.8-6.5l0-0.2c0.4-3.2,0.7-6.4,1.2-9.6
		c0.4-2.8,0.8-5.7,1.2-8.5l0.1-0.4c0.5-3.6,1.1-7.3,1.5-10.9l0.5-4.1l-1.9-2.4c-4.1-5.3-8.5-10.7-13-15.9l-2.4-2.8l-2.9-0.5
		c-8.4-1.4-17.1-2.5-25.7-3.5l-5.2-0.5l-10,5.2c-2.3,1.2-4.8,2.4-7.5,3.6c-0.9,0.4-1.9,0.9-2.8,1.3l-5.6,2.8l-5.6,8.3
		c-1.6,2.4-3.3,4.8-5,7.1l0.5,0.4l0,0l-0.6-0.2l-0.6,0.9c-0.4-1.5-0.8-3.4-1.2-5.3c-0.5-2.7-0.9-5.6-1.2-8.6
		c-0.1-0.9-0.2-1.7-0.3-2.6l-0.8-5.4l-3-3.4c-3.6-4.1-7.2-8.3-10.7-12.7l-1.9-2.4c-1.8-2.2-3.6-4.5-5.4-6.7l-2.4-2.8l-3.8-0.2
		c-2.8-0.2-5.7-0.4-8.5-0.6c-6.7-0.5-13.7-0.9-20.6-1.3l-5.1-0.2l-2.3,2.1c-1.7,1.6-3.3,3.2-4.9,4.8c-1.5,1.5-3,3-4.5,4.4
		c-1.5,1.4-3,2.8-4.6,4.3c-1.2,1.1-2.3,2.2-3.5,3.3l-2.9,2.8l-2.8,6.5c-2,4.8-4.1,9.7-6.3,14.4c-0.6,1.2-1.1,2.5-1.7,3.7l-1.4,3.1
		l0.7,4.4c1,5.5,2.2,11,3.3,16.3c0.8,3.4,1.5,6.9,2.2,10.3c0.6,3,1.2,6.1,1.7,9.1l0.9,4.8l3.2,3.5c5,5.4,9.7,11.3,14.3,17
		c3.8,4.7,7.7,9.6,11.8,14.2l3.8,4.2l15,9.8c9.1,5.8,17.3,10.6,24.9,14.7l3.7,2l5.7-1.5c3.7-1,7.7-2,11.7-3c4.2-1,8.8-2,13.9-3.2
		l8-1.7l7-4.1c0.7-0.4,1.3-0.8,2-1.2c4.1-2.3,8.4-4.6,12.4-6.8l7.9-4.3L201,177z M143.8,109.9L143.8,109.9c1.5-2.3,3.1-4.7,4.5-7
		l-0.5-0.3l0.6,0.2c1.7-2.6,3.4-5.3,5.1-7.9l3.6-5.3c2.6-1.3,5.2-2.7,7.7-4.1c2.6-1.4,5.1-2.8,7.6-4c2.6-1.3,5.1-2.5,7.7-3.8
		l1.1-0.5c10.1,1.6,20.3,3,30.1,4.2c4.8,6.2,9.6,12.5,14.4,18.8c-0.6,4.1-1.2,8.3-1.8,12.4l0,0.2c-0.4,2.9-0.8,5.7-1.2,8.5
		c-0.5,3.2-1,6.4-1.5,9.5c-0.6,3.7-1.3,7.6-1.8,11.4c-7.6,10.6-15,21.5-22.2,32.1l-4.3,6.3c-9.3,4.3-18.7,9.3-28.1,14.9l-1.2,0.3
		c-1.1,0.3-2.1,0.5-3.2,0.8c-5.1,1.1-10.3,2.3-15.3,3.5c-5.6,1.3-10.3,2.4-15,3.6c-12.1-6.4-24.2-13.3-36-20l-1.1-0.7
		c-6.6-6.5-13.3-13.7-20.9-22.5c-4.6-5.3-10.2-11.5-16.3-17.2c-1.4-5.9-2.6-11.9-3.7-17.8c-1.6-8.1-3.3-16.5-5.4-24.6
		c1-2.3,2-4.5,3-6.8l1-2.2c2.3-5.4,4.7-11,6.9-16.6c1.4-1.3,2.8-2.7,4.2-4.1c2.3-2.3,4.7-4.6,7-6.8c2.2-2,4.5-3.9,6.8-5.8
		c1.7-1.4,3.5-2.9,5.1-4.3c1.9,0.1,3.9,0.2,5.8,0.3l0.6,0c8.4,0.5,17,1,25.6,1.8c3.8,4.5,7.3,8.6,10.7,13l1.5,2
		c2.9,3.7,5.8,7.5,8.9,11.2c0.5,3.9,1.1,7.9,1.8,11.7l0,0.1c0.2,1.3,0.5,2.7,0.7,4c0.2,1.1,0.4,2.3,0.6,3.5l0,0.3
		c0.3,2.1,0.7,4.2,1,6.4l1.6,8L143.8,109.9z"/>
	<g>
		<path class="st6" d="M233.9,38.1c-0.6-0.1-1.1-0.5-1.4-0.9l-0.6-1l-0.5,1c-4,7.2-7.8,14.7-11.5,21.9l-2.1,4.2c-1,2-2,3.9-3,5.9
			c-1.7,3.3-3.4,6.5-5,9.8l-0.3,0.5l1,0.6c0.6-0.3,1.3-0.5,2.1-0.5c0.7,0,1.4,0.2,1.9,0.4c0.5-1.1,1-2.2,1.5-3.3
			c1.8-3.9,3.6-7.8,5.4-11.7c2.2-4.7,4.6-9.4,6.8-14c2-4,4-8,5.9-12l0.3-0.7L233.9,38.1z"/>
		<path class="st6" d="M184.2,68c0.5-3.8,1-7.7,1.5-11.5c0.5-3.6,1.1-7.2,1.6-10.8c0.9-5.6,1.7-11.5,2.5-17.2l0.2-1.6l-1.2,1.1
			c-0.5,0.4-1,0.7-1.5,0.8l-0.9,0.1l-0.1,0.5c0,0.1,0,0.2,0,0.3l-0.1,0.5l0,0c-0.1,0.8-0.2,1.7-0.3,2.5c-0.7,4.6-1.5,9.3-2.2,13.9
			l-1.1,7c-0.6,4.1-1.3,8.1-2,12.2c-0.6,3.4-1.1,6.8-1.7,10.2l-0.4,2.5l1.5-2c0.5-0.7,1-1.2,1.6-1.6c0.3-0.2,0.7-0.3,1.1-0.3l0.6,0
			l0.1-0.6C183.7,72,183.9,70,184.2,68z"/>
		<path class="st6" d="M227,101.2l-0.1,0.9l1.6-0.4c0.3-0.1,0.5-0.3,0.7-0.5c0-0.1,0-0.1,0.1-0.2c8-1.9,15.2-3.6,21.8-5.1
			c3.2-0.7,6.5-1.4,9.6-2c1.7-0.3,3.4-0.7,5.1-1.1l0.7-0.1l-0.3-0.7c-0.2-0.5-0.3-1.1-0.2-1.6l0.1-0.5c0.1-0.4,0.3-0.8,0.5-1.2
			l0.7-1.3l-1.4,0.4c-2.4,0.7-4.8,1.4-7.1,2.1c-3.2,0.9-6.5,1.9-9.8,2.8c-6.3,1.7-13.3,3.6-21.9,5.8l-0.7,0.2l0.3,0.7
			C227,100,227.1,100.6,227,101.2z"/>
		<path class="st6" d="M221.8,139.4l0.3,1.1c0,0,0,0,0,0l-0.2-0.1l0.2,1.1c0.1,0.7,0,1.3-0.3,1.8l-0.4,0.7l0.7,0.3
			c3.4,1.2,6.9,2.4,10.3,3.5c2.7,0.9,5.5,1.9,8.2,2.8c2.8,1,5.7,2,8.5,3l6.1,2.2l-0.3-1.1c-0.2-0.8-0.1-1.9,0.8-2.4l1.6-1.1
			l-4.4-1.4c-4.2-1.3-8.6-2.7-12.9-4.1c-3.6-1.2-7.2-2.4-10.8-3.7c-2.1-0.7-4.2-1.4-6.3-2.2L221.8,139.4z"/>
		<path class="st6" d="M220.7,202.1c-1.1-0.9-2.3-1.8-3.4-2.8c-3.1-2.5-6.2-5-9.1-7.6c-3.1-2.8-6.1-5.7-9.1-8.5c-1-1-2.1-2-3.1-3
			l-0.9-0.8l-0.2,1.2c-0.1,0.7-0.5,1.3-1.3,1.8l-0.7,0.4l0.6,0.5c1.7,1.6,3.3,3.2,5,4.8c1.8,1.7,3.6,3.4,5.3,5.1
			c3.8,3.7,7.7,7.4,11,10.6l0.4,0.4l0.4-0.3c0.3-0.3,0.8-0.5,1.5-0.5c1-0.1,2-0.1,2.9-0.1l0.3,0l0.2-0.1c0.1,0,0.1,0,0.2-0.1
			l0.9-0.4L220.7,202.1z"/>
		<path class="st6" d="M173.1,229.9c0.3-0.3,0.5-0.5,0.8-0.8l0.6-0.4c0.3-0.2,0.6-0.3,1-0.3h0.8l-0.3-1c-0.8-2.7-1.5-5.2-2.1-7.6
			l-4.8-19c-0.3-1.1-0.5-2.4-0.7-3.7l-0.3-1.7l-0.7,0.4c-0.9,0.4-1.7,0.9-2.4,1.3l-0.8,0.4l-0.1,0.1c-0.1,0.1-0.2,0.1-0.3,0.2
			l-0.5,0.2l5.7,22.8c0.8,3.4,1.7,6.7,2.5,10.1l0.7,3l0.5-3.1C172.7,230.5,172.9,230.2,173.1,229.9z"/>
		<path class="st6" d="M116.3,242.9c0.8,0.4,1.5,1,1.9,1.8c0.6-0.2,1.1-0.1,1.6,0.1l0.7,0.4l0.2-0.7c1.2-4.1,2.4-8.2,3.5-12.3
			l1.1-3.9c0.4-1.6,0.9-3.1,1.3-4.7c1.8-6.1,3.6-12.4,5-18.7l0.2-1l-1.2,0.3c-0.2,0-0.4,0.1-0.6,0.1l0,0.1l-0.2,0l0,0
			c0,0-0.1,0-0.1,0l-0.1,0c-0.3,0-0.5-0.1-0.7-0.2l-0.2-0.1l-1.1-0.1l-0.1,0.5c-0.8,2.8-1.5,5.6-2.2,8.3c-1.1,4.1-2.2,8.2-3.4,12.3
			c-1.4,4.9-3.1,9.9-4.6,14.8C116.9,240.9,116.6,241.9,116.3,242.9z"/>
		<path class="st6" d="M90.7,183.7l-1.2-0.1c-0.4,0-0.7-0.2-0.9-0.5l-0.1-0.1l-1.1-0.8l-0.4,0.4c-7.3,8-14.9,16.8-24,27.5l-0.6,0.6
			l0.8,0.3c0.7,0.3,1.4,0.5,2.2,0.7c0.5,0,1.1,0.1,1.7,0.2l0.4,0.1l0.2-0.3c7.2-8.6,14.8-17.8,22.3-27.1L90.7,183.7z"/>
		<path class="st6" d="M54.5,144.1c-0.2-0.6-0.1-1.1,0.3-1.5l1.2-1.5l-1.9,0.5c-4.9,1.2-9.8,3-14.5,4.7c-2.4,0.9-4.6,1.7-6.8,2.4
			c-2.8,0.9-5.8,1.8-8.6,2.7c-2,0.6-4,1.2-5.9,1.8l-0.8,0.3l0.5,0.7c0.9,1.3,1.8,2.6,2.6,4.1l0.3,0.5l2.8-1.1
			c3.6-1.5,7.4-2.9,11-4.2c2.7-0.9,5.4-1.8,8.3-2.7c4.2-1.3,8.6-2.6,12.7-4.3l1.5-0.6l-1.6-0.6C55.1,145.2,54.7,144.7,54.5,144.1z"
			/>
		<path class="st6" d="M44.6,100.1l0.4-0.7l-1.9-0.6c-7-2.2-14.3-4.4-21.6-5.8c-4.4-0.8-8.8-1.5-13.1-2.2l-2-0.3l1.3,1.3
			c0.5,0.5,0.7,1.3,0.6,1.9l-0.1,0.6l0.6,0.1c3.9,0.6,8,1.2,12.1,1.9c5.1,0.9,10.2,2.5,15.2,4.1c2.5,0.8,5,1.6,7.5,2.3l1.1,0.3
			l-0.3-1.1C44.2,101.4,44.3,100.7,44.6,100.1z"/>
		<path class="st6" d="M44.4,62.8c3.6,3.7,7.3,7.5,11.1,11.1l0.6,0.5l0.5-0.9c0.2-0.3,0.4-0.6,0.7-0.9l0.1-0.1
			c0.2-0.3,0.4-0.6,0.8-0.8l0.7-0.4l-0.6-0.6c-2.7-2.7-5.5-5.4-8.2-8.1c-2.7-2.6-5.5-5.3-8.1-7.9c-3.5-3.6-7-7.2-10.4-10.8L30,42.3
			l-0.4,0.7c-0.4,0.6-0.7,1.2-1.4,2c0,0.1-0.1,0.1-0.2,0.2l-0.4,0.4l0.4,0.4c3.2,3.2,6.4,6.5,9.6,9.7C39.9,58.1,42.2,60.5,44.4,62.8
			z"/>
		<path class="st6" d="M72.1,28.9l0.3,3.8c0.4,6.1,1,12.3,1.6,18.4c0.2,1.5,0.4,3,0.6,4.5l0.1,0.8l0.8-0.4c0.5-0.2,1.1-0.4,1.8-0.5
			l0.6-0.1l-0.1-0.6c-0.6-4.6-0.9-9.3-1.2-13.8c-0.2-2.6-0.3-5.1-0.6-7.6c-0.5-5.2-0.7-10.6-0.9-15.8c-0.2-3.6-0.3-7.4-0.6-11.1
			l-0.1-1.2l-0.9,0.8c-0.7,0.6-1.4,1-2,1.2L71,7.5L71,8C71,15,71.6,22,72.1,28.9z"/>
		<path class="st6" d="M113.4,56.9l0.6,0.2c0.2,0.1,0.4,0.1,0.6,0.2c0.6,0.2,1.3,0.4,2,0.5c0.1,0,0.3,0.1,0.5,0.1l0.6,0.3l12-34
			c0.5-1.4,1.1-2.9,1.7-4.4c0.3-0.7,0.5-1.3,0.8-2l0.1-0.3l-0.1-0.2c-0.3-0.6-0.6-1.3-0.9-2.1l-0.1-0.2l-0.2-0.1
			c-0.3-0.2-0.6-0.5-0.7-0.9c-0.1-0.3-0.3-0.5-0.6-0.8l-0.7-0.7l-0.3,0.9c-0.6,1.6-1.1,3.2-1.6,4.8c-0.5,1.5-0.9,3-1.4,4.4
			L113.4,56.9z"/>
	</g>
	<path class="st6" d="M150.2,92.8c0.5-0.5,1-1.1,1.4-1.6c0.6-0.7,1.4-0.9,2.2-0.9c0-11.6-0.4-23.2-0.9-34.8c1-1.8,2-3.5,3-5.3
		c-0.5,0.2-1,0.5-1.5,0.6c-2,0.7-3.4-0.1-4.1-1.4c0,1.5,0,3,0,4.4c-2.6,4.9-5.3,9.9-8,14.8c-2.1,3.8-4.2,7.5-6.3,11.2
		c0.7,0.5,1.2,1.4,1.3,2.2c3.2-5.1,6.3-10.3,9.3-15.5c1.3-2.2,2.5-4.4,3.8-6.6C150.2,71,150.2,81.9,150.2,92.8z"/>
</g>
<g>
	<g>
		<g>
			
				<linearGradient id="SVGID_2_" gradientUnits="userSpaceOnUse" x1="153.0441" y1="220.485" x2="339.1471" y2="220.485" gradientTransform="matrix(1 0 0 -1 141.266 347.055)">
				<stop  offset="0" style="stop-color:#FFF3AD"/>
				<stop  offset="1" style="stop-color:#FFFFFF"/>
			</linearGradient>
			<path class="st7" d="M469.5,62.4h-79.6v16.1h15.9v16.1L358,142.6V30.2h-63.7v16.1h31.8v176.6L469.5,62.4z M469.7,199.8v-59.1
				c0-3.8-1.3-7.1-3.9-9.7c-2.7-2.7-5.9-4-9.6-4h-18.8v12.3h9.4v60.6h-12.8V212h46.2v-12.3L469.7,199.8L469.7,199.8z"/>
		</g>
	</g>
	<g>
		<g>
			
				<linearGradient id="SVGID_3_" gradientUnits="userSpaceOnUse" x1="578.917" y1="108.053" x2="578.917" y2="300.068" gradientTransform="matrix(1 0 0 -1 0 328)">
				<stop  offset="0" style="stop-color:#FFF3AD"/>
				<stop  offset="1" style="stop-color:#FFFFFF"/>
			</linearGradient>
			<path class="st8" d="M484.5,105.4h65.2V65.5h-59V52.3h53.1c-3.8-5.2-8.2-10.6-13.3-16.3l11.2-8.1c5.9,6.1,11.5,12.3,16.6,18.6
				l-8.1,5.8h49.5c5-7.3,10.2-15.3,15.4-24l14.1,7.7c-4.3,5.9-8.3,11.4-12,16.3h49.9v13.2h-59v39.9h65.2v13.2H484.5V105.4z
				 M504.2,79l10.5-9.5c8.3,7.9,15.6,15.3,22.1,22.3l-11.2,10.1C519.7,95,512.6,87.4,504.2,79z M511.6,134.4h134.7v85.6h-14.7V211
				H526.3v8.9h-14.7V134.4z M631.6,147.6H526.3v18.8h105.3V147.6z M526.3,197.9h105.3v-18.8H526.3V197.9z M563.8,105.4H594V65.5
				h-30.2V105.4z M619.6,93.4c7-7.1,13.8-15.2,20.5-24.2l12.4,8.9c-7.2,8.6-14.6,16.8-22.1,24.4L619.6,93.4z"/>
			
				<linearGradient id="SVGID_4_" gradientUnits="userSpaceOnUse" x1="776.74" y1="110.571" x2="776.74" y2="294.844" gradientTransform="matrix(1 0 0 -1 0 328)">
				<stop  offset="0" style="stop-color:#FFF3AD"/>
				<stop  offset="1" style="stop-color:#FFFFFF"/>
			</linearGradient>
			<path class="st9" d="M760.5,200.4l48.2,0.8l64.5-1.5c-1.4,4.3-3.2,9.4-5.4,15.3l-64.1,0.4l-46.1-1.2
				c-21.9-0.3-37.3-7.8-46.1-22.6c-5.3,4.9-13,13.5-23.2,25.9l-7.9-16.1c11.4-11,19.7-18.9,24.8-23.7v-65.1h-23V98.2H720v82.8
				C728,193.8,741.4,200.3,760.5,200.4z M704.5,33.2c6.6,8,15.6,20.2,27.1,36.6l-13.7,9.7c-10.5-16.4-19-29-25.7-37.9L704.5,33.2z
				 M758.3,189.8h-13.7v-109h46.7c-9.7-5-19.7-9.9-30-14.9l7.9-9.3c10.1,4.9,19.7,9.6,28.6,14l34.6-18.1h-90.8V40.1h116.3v13
				l-46.7,24.3c2.3,1.2,4.5,2.3,6.6,3.4h41.5v87.5c0,14.7-6.8,22.1-20.3,22.1c-6.7,0-14-0.2-21.9-0.6c-0.6-4.9-1.6-9.9-2.9-14.9
				c8.1,0.9,15.1,1.4,20.9,1.4c7,0,10.5-3.4,10.5-10.1v-9.5h-37v30.2h-13.7v-30.2h-36.4V189.8z M758.3,112.5h36.4V93.2h-36.4V112.5z
				 M758.3,144.3h36.4v-19.4h-36.4V144.3z M845.5,93.2h-37v19.4h37V93.2z M808.5,144.3h37v-19.4h-37V144.3z"/>
		</g>
	</g>
</g>
</svg>
