<?xml version="1.0" encoding="utf-8"?>
<!-- Generator: Adobe Illustrator 21.1.0, SVG Export Plug-In . SVG Version: 6.00 Build 0)  -->
<svg version="1.1" id="图层_1" xmlns="http://www.w3.org/2000/svg" xmlns:xlink="http://www.w3.org/1999/xlink" x="0px" y="0px"
	 viewBox="0 0 860 271.4" style="enable-background:new 0 0 860 271.4;" xml:space="preserve">
<style type="text/css">
	.st0{fill:url(#SVGID_1_);stroke:#964F36;stroke-width:2;stroke-miterlimit:10;}
	.st1{fill:#C09586;}
	.st2{fill:#FFFFFF;}
	.st3{fill:#AB725E;}
	.st4{fill:#964F36;}
	.st5{fill:#D5B9AF;}
	.st6{fill:none;}
	.st7{fill:url(#SVGID_2_);}
	.st8{fill:url(#SVGID_3_);}
	.st9{fill:url(#SVGID_4_);}
	.st10{fill:url(#SVGID_5_);}
	.st11{fill:url(#SVGID_6_);}
	.st12{fill:url(#SVGID_7_);}
	.st13{fill:url(#SVGID_8_);}
</style>
<linearGradient id="SVGID_1_" gradientUnits="userSpaceOnUse" x1="507.2445" y1="51.422" x2="507.2445" y2="318.397" gradientTransform="matrix(1 0 0 -1 0 320.622)">
	<stop  offset="0" style="stop-color:#B56441"/>
	<stop  offset="1" style="stop-color:#EBA27E"/>
</linearGradient>
<path class="st0" d="M855.4,2.2H159.1c7.2,11.5,14.1,23.1,20.4,34.7c11.6,21.4,22.1,43.4,31.1,65.5l7.6,19.6l1.4,18
	c1.1,13,2.1,26.1,3.2,39.2c0.6,7.6,1.2,15.1,1.8,22.7l1.1,14.5l-8.3,12.1l-4.4,6.3c-2.5,3.6-4.9,7.1-7.4,10.7
	c-3.1,4.5-6.1,8.9-9.1,13.4l-7,10.3h666V2.2z"/>
<g>
	<path class="st1" d="M155.6,62.8C150.1,51.5,115.5,4.8,113.8,5L85.4,35.8L51.3,74.4l-37,58.1L2.4,202.1L43.5,248l54.3,22l64.2-23.6
		l35.1-40.5l-9.6-83.8C187.6,122,161.1,74.1,155.6,62.8z"/>
	<path class="st2" d="M187,120.9c-3.9-7.1-26.3-47.9-31.3-58.2C150.1,51.5,115.5,4.8,113.8,5l0,0L112,59.6l43.5,77.3L187,120.9z"/>
	<path class="st3" d="M142.1,214.4L60,139.6c0,0-31-2.9-46.2-3.9L2.4,202.1L43.5,248l54.3,22l64.2-23.6l0.4-0.4L142.1,214.4z"/>
	<path class="st4" d="M101.5,220.4l-35.2-7L44,248.2l51.7,20.9C97.5,254,101.5,220.4,101.5,220.4z"/>
	<polygon class="st5" points="155.9,118.1 134.1,84 112.9,52.9 99.4,64.4 78.7,90.4 45.6,137.8 38,187 63.9,216.3 100.9,233 
		145,217.7 168.1,188.7 162.7,132.9 	"/>
	<path class="st2" d="M92.1,73.6l46.7,17.8l17.1,26.8l6.8,14.8l0.6,6.7l-94.1-35.8l9.4-13.5L92.1,73.6z M166.4,172l-1.6-16.8
		L61,115.8l-8.9,12.7L166.4,172z"/>
	<path class="st4" d="M199.3,200.7c-0.7-7.5-1.4-15.1-2.1-22.6c-1.3-13.1-2.6-26.1-3.9-39.2l-1.3-14.2l-7.5-15.6
		c-10.7-21.5-23-42.5-36.6-62.9c-9.3-14-19.4-27.7-30-41L113.8,0l-4.7,4.7c-1,1.1-2.1,2.1-3.1,3.1C93,21.4,80.6,35.3,68.9,49.7
		C49.4,73.5,32,98.3,16.8,124.1l-4.1,7.1l-2.9,14c0.1-0.2,0.3-0.5,0.4-0.7c-1.6,8.9-3.2,17.9-4.8,26.8c-1.6,8.7-3.1,17.4-4.6,26.2
		L0,201.4l4.2,4.8c6.8,7.7,13.5,15.3,20.3,23c4.3,4.8,8.5,9.7,12.7,14.5l5.1,5.9l8,3.2c14.2,5.7,28.4,11.3,42.6,16.7l4.9,1.9
		l6.7-2.3c17.7-6,35.4-12,53.1-18l5.8-2l5.5-6.5c4.2-5,8.3-10,12.5-15c4.8-5.7,9.6-11.3,14.5-17l3.9-4.6L199.3,200.7z M163,244.7
		c-21.2,7.5-42.3,14.9-63.4,22.5c-18.3-7.1-36.8-14.1-55.3-20.9l-6.3-6.9c-11.2-12.3-22.2-24.7-33.3-37.1c0.1-0.9,0.2-1.8,0.4-2.7
		c1.5-9.4,3-18.7,4.5-28.1c1.9-11.8,3.8-23.6,5.6-35.4c7.3-12.3,15.2-24.4,23.4-36.3c20.1-29.2,42.9-57.2,68.3-83.5
		c2.1-2.2,4.3-4.4,6.5-6.6c0.1,0.2,0.3,0.3,0.4,0.5c22.5,28,42.2,57.5,59.1,88.1c4.8,8.7,9.4,17.5,13.8,26.3
		c0.3,2.5,0.6,4.9,0.9,7.4c1.7,14.9,3.4,29.8,5,44.7c1,9.6,2,19.3,3.1,28.9C184.8,218.7,173.8,231.6,163,244.7z"/>
	<path class="st4" d="M169.7,185.2c-0.5-5.2-0.9-10.3-1.4-15.5c-0.8-9-1.7-17.9-2.5-26.9l-0.9-9.7l-5-10.9
		c-7-14.5-15.2-29-24.3-43.1c-6.1-9.4-12.8-18.9-19.9-28.1l-3.2-4.2l-4.6,4.8c-0.4,0.4-0.8,0.8-1.2,1.2
		c-8.7,9.3-17.1,18.9-24.8,28.7c-13.1,16.5-24.8,33.7-34.8,51.2l-2.8,4.9l-2.8,13.8l0.4-0.8c-0.4,2.3-0.8,4.6-1.2,7
		c-0.4,2.5-0.9,5.1-1.3,7.6c-0.8,4.5-1.6,9-2.4,13.5l-1.3,7.3l16.4,19.2c2.8,3.3,5.6,6.6,8.4,9.9l3.5,4.1l5.5,2.3
		c10.4,4.3,19.7,8,28.4,11.4l3.5,1.4l4.8-1.7c12.3-4.3,24.8-8.7,35.4-12.4l4-1.4l5.2-6.4c2.3-2.8,4.6-5.7,6.9-8.5
		c2-2.5,4.1-5,6.2-7.5l6.2-7.5L169.7,185.2z M165.8,188.4c-4.8,6-9.7,12.1-14.5,18c-2.3,2.9-4.6,5.7-6.9,8.6l-2.1,0.8
		c-13,4.7-26.4,9.6-39.6,14.5c-10.6-4.2-22.2-8.7-36.3-14.1l-4.1-4.6c-5.7-6.4-11.3-12.9-16.8-19.3l-5.1-5.9
		c0.1-0.6,0.1-1.1,0.2-1.6l0.9-6c0.7-4.4,1.4-8.9,2.1-13.3c0.4-2.7,0.9-5.5,1.3-8.2c0.8-5.3,1.7-10.7,2.5-16
		c4.7-8.1,9.9-16.4,15.5-24.8c13.4-20.1,28.7-39.3,45.6-57.2c1.2-1.3,2.5-2.6,3.7-3.9c14.7,18.9,27.7,39.1,38.8,59.9
		c3.1,5.9,6.2,11.9,9.1,18c0.2,1.7,0.4,3.3,0.6,5c1.1,10.2,2.2,20.4,3.2,30.6c0.6,5.4,1.1,10.8,1.6,16.2L165.8,188.4z"/>
	<g>
		<path class="st4" d="M13.8,133.9c0,0,0.1,0.1,0.1,0.1c0.1,0.2,0.1,0.4,0.2,0.7c0.2,0.6,0.1,1.2-0.3,1.7c9.3,0.7,18.5,1.5,27.8,2.2
			c1.3,0.1,2.6,0.2,3.9,0.3c0,0,0-0.1,0-0.1c0-0.3,0.1-0.7,0.1-1c0.1-0.7,0.6-1.5,1.4-1.8c-5.8-0.4-10.6-0.7-11.8-0.8
			C28,134.8,20.9,134.4,13.8,133.9z"/>
		<path class="st4" d="M112.1,55.1c1.2,0.1,2.2,0.8,2.3,1.8c0.1,0.1,0.2,0.2,0.2,0.3c0.1-4.5,0.2-9,0.3-13.5
			c0.3-13.2,1.3-26.5,1.4-39.8c-1.2,0.7-2.7,1.1-4.4,0.9c-0.5,10.4-0.5,20.8-0.9,31.1c-0.3,6.4-0.5,12.8-0.8,19.2
			c0.2,0,0.4-0.1,0.5-0.1c0.4,0,0.9,0,1.3,0C112.1,55.1,112.1,55.1,112.1,55.1z"/>
		<path class="st4" d="M163,135.3c8.2-3.9,16.4-7.9,24.4-12.1c-1.4-0.7-2.1-1.8-2.2-3c-7.6,3.8-15.1,7.8-22.6,11.8
			c0.6,0.8,0.9,1.9,0.5,2.9C163.1,135.1,163.1,135.2,163,135.3z"/>
		<path class="st4" d="M195.7,206.1c0.4-0.6,0.9-1.1,1.5-1.6c0.3-0.3,0.6-0.4,0.9-0.5c-5.1-2.6-10.4-5-15.1-7.6
			c-5.3-2.9-10.6-5.8-15.9-8.6c0.1,0.6-0.1,1.2-0.4,2c-0.2,0.4-0.5,0.7-0.9,1c5,2.8,10.1,5.5,15.1,8.3c4.8,2.7,9.7,5.4,14.5,8
			C195.3,206.8,195.4,206.4,195.7,206.1z"/>
		<path class="st4" d="M98.4,233.3c0,0.4-0.1,0.8-0.1,1.2c-0.7,5.8-1.4,11.6-2.1,17.4c-0.6,5-1.5,10.2-2.3,15.4c0.1,0,0.2,0,0.4,0.1
			c0.9,0.2,1.8,0.4,2.6,0.7c0.6,0.2,1.1,0.5,1.5,0.9c0.4-5.3,0.6-10.6,1.1-15.8c0.6-5.8,1.1-11.6,1.7-17.4c0.1-0.7,0.1-1.4,0.2-2
			C100.4,233.9,99.3,233.8,98.4,233.3z"/>
		<path class="st4" d="M63.9,216.3c-4.5,6.4-8.9,12.8-13.5,19.1c-2.6,3.5-5.1,7-7.7,10.5c1.3,0.4,2.4,1,3.4,1.8
			c2.7-3.8,5.3-7.7,7.9-11.6c4-6,8.1-12,12-18.1c-0.3-0.1-0.5-0.2-0.8-0.4C64.6,217.2,64.2,216.8,63.9,216.3z"/>
		<path class="st4" d="M145.2,215.4c-0.3,0.8-1.2,1.5-2.2,1.6c3.4,5.8,6.9,11.7,10.4,17.5c2.7,4.5,5.2,9.1,7.9,13.7
			c0.5-0.8,1.6-1.3,2.7-1.5l-0.1,0c0.1,0,0.3,0,0.4,0c0.2,0,0.4,0,0.6,0h0c-2.8-4.5-5.8-8.9-8.5-13.3
			C152.5,227.3,148.9,221.3,145.2,215.4z"/>
		<path class="st4" d="M38.1,186.5c-2.5,1.1-5,2.2-7.5,3.3c-9.1,3.9-18.2,7.9-27.4,11.6c0.1,0.1,0.2,0.1,0.2,0.2
			c0.6,0.5,0.9,1.2,0.9,1.9c9.4-3.5,18.6-7.3,27.9-11.1c2.4-1,4.7-1.9,7.1-2.9c-0.8-0.6-1.3-1.5-1.3-2.5
			C38,186.8,38.1,186.6,38.1,186.5z"/>
	</g>
</g>
<rect x="468.7" y="172.9" class="st6" width="117" height="14.6"/>
<rect x="468.7" y="145.2" class="st6" width="117" height="14.6"/>
<rect x="851.3" y="92.1" class="st6" width="28.7" height="42.2"/>
<path class="st6" d="M602.6,215.3c0,14.8-8.7,22.1-26.2,22c-10.3,0-20.9-0.1-31.9-0.2c-0.6-4.5-1.6-9.9-3.2-16.3
	c11.3,0.8,22.2,1.3,32.7,1.3c7.7,0,11.6-3.2,11.6-9.7v-11.8h-117v38.2H452v-107h150.5V215.3z M628.5,118.9H425.9v-13.5h93.3V91
	h-78.1V77.7h78.1V63.5h-89.1V50h89.1V31.2h16.9V50h88.2v13.5h-88.2v14.1h73V91h-73v14.4h92.5L628.5,118.9L628.5,118.9z M710.9,158.3
	h-28.1v51.7c6.9-4.1,15.2-8.9,24.9-14.4c0,6.2,0.4,12,1.1,17.5c-8.7,4.2-18.1,9.5-28.1,15.8c-2.5,1.4-5.5,3.8-8.9,7.2l-11.2-14.6
	c4.5-4.2,6.8-9.5,6.8-15.8v-47.5h-24.1v-14.8h24.1V117h-13.3v-12c-2,3.1-3.9,6.1-5.7,9.1c-3.8-6.6-7.2-11.8-10.1-15.4
	c13.4-20.3,23.4-42,30-65.2l16,4.4c-3.1,9.3-6.4,18.1-9.9,26.4h35.3V79h-41.8c-3.8,8.2-7.9,15.9-12.2,23.2H705V117h-22.2v26.6h28.1
	L710.9,158.3L710.9,158.3z M764.9,201.2h-14.4v-79.4H808v70.5h-43.1L764.9,201.2L764.9,201.2z M741.9,98V84h76.2V98H741.9z
	 M841.3,213.2c0,17-7.6,25.5-22.8,25.5c-9.7,0-22.2-0.2-37.4-0.6c-0.8-5.4-1.9-11-3.2-16.9c13.9,0.8,25.5,1.3,34.8,1.3
	c8.6,0,12.9-4.4,12.9-13.1V59.3H733v181.1h-15.6V44.5h123.9L841.3,213.2L841.3,213.2z"/>
<g>
	<g>
		<g>
			
				<linearGradient id="SVGID_2_" gradientUnits="userSpaceOnUse" x1="308.2359" y1="100.6031" x2="308.2359" y2="317.4151" gradientTransform="matrix(1 0 0 -1 0.1736 344.7221)">
				<stop  offset="0" style="stop-color:#FFF3AD"/>
				<stop  offset="1" style="stop-color:#FFFFFF"/>
			</linearGradient>
			<path class="st7" d="M400.8,63.4h-89.6v18.1h17.9v18.1l-53.8,54.2V27.3h-71.7v18.1h35.8v198.7L400.8,63.4z M401.1,218.1v-66.5
				c0-4.3-1.5-8-4.4-10.9c-3-3-6.6-4.6-10.8-4.6h-21.1v13.8h10.6v68.2h-14.3v13.8h52v-13.8H401.1z"/>
		</g>
	</g>
	
		<linearGradient id="SVGID_3_" gradientUnits="userSpaceOnUse" x1="527.305" y1="81.451" x2="527.305" y2="288.975" gradientTransform="matrix(1 0 0 -1 0 320.622)">
		<stop  offset="0" style="stop-color:#FFF3AD"/>
		<stop  offset="1" style="stop-color:#FFFFFF"/>
	</linearGradient>
	<path class="st8" d="M452,239.2h16.7V201h117v11.8c0,6.5-3.9,9.7-11.6,9.7c-10.6,0-21.5-0.4-32.7-1.3c1.5,6.3,2.6,11.8,3.2,16.3
		c11,0.1,21.6,0.2,31.9,0.2c17.4,0.1,26.2-7.2,26.2-22v-83.6H452V239.2z M468.7,145.6h117v14.6h-117V145.6z M468.7,173.3h117v14.6
		h-117V173.3z"/>
	
		<linearGradient id="SVGID_4_" gradientUnits="userSpaceOnUse" x1="527.1975" y1="81.4505" x2="527.1975" y2="288.9745" gradientTransform="matrix(1 0 0 -1 0 320.622)">
		<stop  offset="0" style="stop-color:#FFF3AD"/>
		<stop  offset="1" style="stop-color:#FFFFFF"/>
	</linearGradient>
	<polygon class="st9" points="536.1,91.4 609.1,91.4 609.1,78.1 536.1,78.1 536.1,63.9 624.3,63.9 624.3,50.4 536.1,50.4 
		536.1,31.6 519.2,31.6 519.2,50.4 430.1,50.4 430.1,63.9 519.2,63.9 519.2,78.1 441.1,78.1 441.1,91.4 519.2,91.4 519.2,105.7 
		425.9,105.7 425.9,119.3 628.5,119.3 628.5,105.7 536.1,105.7 	"/>
	
		<linearGradient id="SVGID_5_" gradientUnits="userSpaceOnUse" x1="674.5569" y1="79.7616" x2="674.5569" y2="286.8633" gradientTransform="matrix(1 0 0 -1 0 320.622)">
		<stop  offset="0" style="stop-color:#FFF3AD"/>
		<stop  offset="1" style="stop-color:#FFFFFF"/>
	</linearGradient>
	<path class="st10" d="M682.8,117.4H705v-14.8h-49.4c4.4-7.3,8.4-15.1,12.2-23.2h41.8V64.6h-35.3c3.5-8.3,6.8-17.1,9.9-26.4l-16-4.4
		c-6.6,23.2-16.6,45-30,65.2c3,3.7,6.3,8.8,10.1,15.4c1.8-3,3.7-6,5.7-9.1v12h13.3V144h-24.1v14.8h24.1v47.5
		c0,6.3-2.3,11.6-6.8,15.8l11.2,14.6c3.4-3.4,6.3-5.8,8.9-7.2c10-6.3,19.4-11.6,28.1-15.8c-0.7-5.5-1.1-11.3-1.1-17.5
		c-9.7,5.5-18,10.3-24.9,14.4v-51.7h28.1V144h-28.1L682.8,117.4L682.8,117.4z"/>
	
		<linearGradient id="SVGID_6_" gradientUnits="userSpaceOnUse" x1="780.009" y1="79.7616" x2="780.009" y2="286.8633" gradientTransform="matrix(1 0 0 -1 0 320.622)">
		<stop  offset="0" style="stop-color:#FFF3AD"/>
		<stop  offset="1" style="stop-color:#FFFFFF"/>
	</linearGradient>
	<rect x="741.9" y="84.4" class="st11" width="76.2" height="13.9"/>
	
		<linearGradient id="SVGID_7_" gradientUnits="userSpaceOnUse" x1="779.3765" y1="79.762" x2="779.3765" y2="286.8637" gradientTransform="matrix(1 0 0 -1 0 320.622)">
		<stop  offset="0" style="stop-color:#FFF3AD"/>
		<stop  offset="1" style="stop-color:#FFFFFF"/>
	</linearGradient>
	<path class="st12" d="M717.4,240.9H733V59.7h92.7v150.1c0,8.7-4.3,13.1-12.9,13.1c-9.3,0-20.9-0.4-34.8-1.3
		c1.3,5.9,2.3,11.5,3.2,16.9c15.2,0.4,27.7,0.6,37.4,0.6c15.2,0,22.8-8.5,22.8-25.5V44.9H717.4V240.9z"/>
	
		<linearGradient id="SVGID_8_" gradientUnits="userSpaceOnUse" x1="779.27" y1="79.7616" x2="779.27" y2="286.8633" gradientTransform="matrix(1 0 0 -1 0 320.622)">
		<stop  offset="0" style="stop-color:#FFF3AD"/>
		<stop  offset="1" style="stop-color:#FFFFFF"/>
	</linearGradient>
	<path class="st13" d="M808,122.2h-57.4v79.4h14.4v-8.9H808L808,122.2L808,122.2z M793.6,178.6h-28.7v-42.2h28.7V178.6z"/>
</g>
</svg>
