<?xml version="1.0" encoding="utf-8"?>
<!-- Generator: Adobe Illustrator 21.1.0, SVG Export Plug-In . SVG Version: 6.00 Build 0)  -->
<svg version="1.1" id="图层_1" xmlns="http://www.w3.org/2000/svg" xmlns:xlink="http://www.w3.org/1999/xlink" x="0px" y="0px"
	 viewBox="0 0 888 264" style="enable-background:new 0 0 888 264;" xml:space="preserve">
<style type="text/css">
	.st0{fill:url(#SVGID_1_);stroke:#EF6100;stroke-width:2;stroke-miterlimit:10;}
	.st1{fill:url(#SVGID_2_);}
	.st2{fill:url(#SVGID_3_);}
	.st3{fill:url(#SVGID_4_);}
	.st4{fill:#F5A066;}
	.st5{fill:#FFFFFF;}
	.st6{fill:#F28133;}
	.st7{fill:#EF6100;}
</style>
<g>
	
		<linearGradient id="SVGID_1_" gradientUnits="userSpaceOnUse" x1="548.7385" y1="8.49" x2="548.7385" y2="263.992" gradientTransform="matrix(1 0 0 -1 0 268)">
		<stop  offset="0" style="stop-color:#FF6C00"/>
		<stop  offset="1" style="stop-color:#FFC343"/>
	</linearGradient>
	<path class="st0" d="M213.2,4v47.5c4.9,6.6,9.8,13.1,14.6,19.7c12.5,17,25.1,34.4,37.4,51.7c2.9,4.1,5.7,8.1,8.6,12.2l18.6,26.7
		l-29.7,18.9c-16,10.3-32.4,21.1-49.4,32.6v46.1h671V4H213.2z"/>
	<g>
		<g>
			<g>
				
					<linearGradient id="SVGID_2_" gradientUnits="userSpaceOnUse" x1="568.8865" y1="39.444" x2="568.8865" y2="234.866" gradientTransform="matrix(1 0 0 -1 0 268)">
					<stop  offset="0" style="stop-color:#FFF3AD"/>
					<stop  offset="1" style="stop-color:#FFFFFF"/>
				</linearGradient>
				<path class="st1" d="M487.6,64h52.2c4.7-10.3,8.8-20.6,12.2-30.9l17.3,4.6c-4.1,9-8.2,17.8-12.5,26.3h93.3v164.5h-16.3v-13.9
					H503.9v13.9h-16.3V64z M633.8,78.8H503.9v52.2h129.9V78.8z M503.9,199.9h129.9v-54.6H503.9V199.9z"/>
				
					<linearGradient id="SVGID_3_" gradientUnits="userSpaceOnUse" x1="773.17" y1="44.224" x2="773.17" y2="232.273" gradientTransform="matrix(1 0 0 -1 0 268)">
					<stop  offset="0" style="stop-color:#FFF3AD"/>
					<stop  offset="1" style="stop-color:#FFFFFF"/>
				</linearGradient>
				<path class="st2" d="M680.8,209h84.5v-48.6H694v-14.5h71.3V118h-51.8v-13.9c-9.4,6-19.7,12-30.7,17.9c-2.8-5-6.1-10-10-14.9
					c44.2-20.7,75.5-44.5,93.8-71.3h21.7l-4.6,5.6c21.1,27,51,47.9,89.6,62.9c-3.6,5-7.1,10.4-10.6,15.9
					c-10.4-4.4-20.4-9.6-30.1-15.7V118h-51.6v27.9h70.9v14.5h-70.9V209h84.9v14.7H680.8V209z M703.2,172.6l11.8-9.4
					c9.7,9.8,19.2,20.1,28.5,30.7l-13.5,10.8C721.9,194.2,713,183.5,703.2,172.6z M773.5,52.7c-13.7,17.3-33.4,34.2-59.2,50.8h116.9
					C810.5,90.3,791.3,73.4,773.5,52.7z M801.8,195.5c10.8-11.2,19.9-22,27.3-32.7l13.9,9c-9.3,11.6-19.1,22.6-29.3,33.3
					L801.8,195.5z"/>
			</g>
		</g>
		<g>
			<g>
				
					<linearGradient id="SVGID_4_" gradientUnits="userSpaceOnUse" x1="369.6243" y1="79.2561" x2="369.6243" y2="284.8121" gradientTransform="matrix(1 0 0 -1 -7.1023 313.7931)">
					<stop  offset="0" style="stop-color:#FFF3AD"/>
					<stop  offset="1" style="stop-color:#FFFFFF"/>
				</linearGradient>
				<path class="st3" d="M450.1,63.2h-84.9v17.1h17v17.1l-51,51.4V29h-68v17.1h34v188.4L450.1,63.2z M450.4,209.9v-63
					c0-4.1-1.4-7.5-4.2-10.3c-2.9-2.9-6.3-4.3-10.2-4.3h-20v13.1h10.1v64.6h-13.6v13.1h49.3v-13.1L450.4,209.9L450.4,209.9z"/>
			</g>
		</g>
	</g>
	<g>
		<polygon class="st4" points="153.7,14.2 9,108.8 111.3,250.8 254.4,154 		"/>
		<path class="st5" d="M174.2,159.8l-84.9-55.1l1.7-2.3l13.3-9l85.7,55.7L174.2,159.8z M119.1,83.4l68.6,44.6l-44.5-60.9L119.1,83.4
			z"/>
		<path class="st6" d="M110,248.6c1.2-2.5,9-53.3,9-53.3l-56-75.8l-54-6.9"/>
		<polyline class="st5" points="253.2,151.7 198.1,143.3 142.7,68.4 152.5,14.4 		"/>
		<path class="st7" d="M256.4,149c-3-4.3-5.9-8.5-8.9-12.8c-12.2-17.2-24.6-34.3-37.1-51.3c-17.6-23.9-35.5-47.6-53.8-71.1L153,9.1
			l-4.6,3C131,23.3,113.7,34.7,96.5,46.2C66.9,66.1,37.6,86.4,8.6,107.1l-4.4,3.1l3.3,4.3c33.1,42.8,65.7,86.1,97,130.3
			c1.2,1.7,2.4,3.4,3.6,5.1l3.1,4.4l4.8-3.4c44.6-31.5,89.7-62.4,135.6-92.1c1-0.7,2-1.3,3.1-1.9l5-3.2L256.4,149z M238,132.9
			c3.8,5.3,7.5,10.7,11.2,16.1c-5.1-0.7-10.2-1.4-15.3-2.1c-10.9-1.5-21.8-3.3-32.7-4.8l-1-1.5c-1.5-2.2-3.1-4.5-4.6-6.7
			c-6.6-9.4-13.5-18.8-20.3-28c-9.7-13.1-19.6-26.2-29.4-38.8l-0.7-0.9c1.4-8.4,2.8-16.7,4.1-25.1c1.2-7.6,2.5-15.2,3.8-22.9
			C182,55.9,210.4,94,238,132.9z M121.7,193.8c-6.4-9-12.9-18-19.4-26.8c-11.6-15.8-23.4-31.3-35.2-46.2
			c26.6-18.8,50.4-34.9,72.6-49.2c1-0.6,2-1.3,3-1.9c17.5,22.8,32.8,43.5,46.7,63.1c2,2.8,4,5.8,6,8.6l1.1,1.5
			c-9.1,5.9-17.9,11.7-26.3,17.3C153.7,171.2,137.3,182.6,121.7,193.8z M145.7,20.7c1.2-0.8,2.5-1.6,3.7-2.4
			c-1.3,7.4-2.6,14.8-4,22.2c-1.6,8.5-3.2,17.1-4.9,25.6c-9.5,6.1-19,12.4-28.2,18.5c-16.4,11-32.5,22.2-48,33.3l-0.5,0.4
			c-17.1-2.1-34.2-4.4-51.2-7.3C56.4,80.1,100.6,49.8,145.7,20.7z M76.9,196.8c-20-27.1-40.3-53.9-61.1-80.5
			c15.8,2.4,31.7,4.5,47.6,6l0.2,0.3c20.2,26.1,37.5,49.4,53,71.2c0.4,0.6,0.9,1.2,1.3,1.9c-1.8,9.9-3.6,19.7-5.5,29.6
			c-1,5.5-2.1,11-3.1,16.5C98.7,226.7,87.9,211.7,76.9,196.8z M113.5,246.2c0.5-2.9,1-5.7,1.4-8.6c2.2-12.9,4.5-25.9,6.7-38.9
			l1.9-1.4c27.3-19.3,51.5-35.7,74.1-50.3l3.1-2c10.9,1.7,21.8,3.3,32.7,5.1c5.7,0.9,11.4,1.8,17,2.8c-16.1,10.4-32.1,20.9-48,31.6
			C172.5,204.6,142.8,225.1,113.5,246.2z"/>
	</g>
</g>
</svg>
