<?xml version="1.0" encoding="utf-8"?>
<!-- Generator: Adobe Illustrator 21.1.0, SVG Export Plug-In . SVG Version: 6.00 Build 0)  -->
<svg version="1.1" id="图层_1" xmlns="http://www.w3.org/2000/svg" xmlns:xlink="http://www.w3.org/1999/xlink" x="0px" y="0px"
	 viewBox="0 0 889 274" style="enable-background:new 0 0 889 274;" xml:space="preserve">
<style type="text/css">
	.st0{fill:url(#SVGID_1_);stroke:#901ED3;stroke-width:2;stroke-miterlimit:10;}
	.st1{fill:url(#SVGID_2_);}
	.st2{fill:url(#SVGID_3_);}
	.st3{fill:url(#SVGID_4_);}
	.st4{fill:#D3A5ED;}
	.st5{fill:#FFFFFF;}
	.st6{fill:#BC78E5;}
	.st7{fill:#901ED3;}
</style>
<g>
	
		<linearGradient id="SVGID_1_" gradientUnits="userSpaceOnUse" x1="539.1395" y1="85.798" x2="539.1395" y2="347.412" gradientTransform="matrix(1 0 0 -1 0 354)">
		<stop  offset="0" style="stop-color:#A21CE5"/>
		<stop  offset="1" style="stop-color:#C42DF0"/>
	</linearGradient>
	<path class="st0" d="M202.2,6.6l10.1,4.4l9,17.5c1.2,2.4,2.4,4.9,3.6,7.3c1.7,3.4,3.3,6.9,5,10.2c1.3,2.6,2.6,5.2,4,7.8
		c1.5,2.8,2.9,5.7,4.4,8.5l9.5,19.5l-10.5,19.3c-15.7,28.9-30,55-43.5,79.6v87.5h690.9V6.6H202.2z"/>
	<g>
		<g>
			<g>
				
					<linearGradient id="SVGID_2_" gradientUnits="userSpaceOnUse" x1="563.794" y1="115.32" x2="563.794" y2="317.019" gradientTransform="matrix(1 0 0 -1 0 354)">
					<stop  offset="0" style="stop-color:#FFF3AD"/>
					<stop  offset="1" style="stop-color:#FFFFFF"/>
				</linearGradient>
				<path class="st1" d="M536.7,193.6c-0.1,5.1,0.2,10.7,1,17c-10.8,5.1-21.2,10.7-31.2,16.8c-4.2,2.6-7.2,4.9-8.8,7l-11.1-14.1
					c4.5-4.2,6.8-9.4,6.8-15.4v-44.7H464V146h29.5v-27.7h-15.6v-13.5c-2.3,3.6-4.6,7-7,10.5c-1.9-3.8-4.9-8.8-8.8-15
					C475.2,82.8,486,61.7,494.5,37l15.6,5.1c-3.7,9.1-7.7,17.9-11.9,26.4h47.6v14.1h-54.8c-4,7.4-8.3,14.6-12.7,21.5h56.7v14.1
					h-26.2V146h31.8v14.1h-31.8V209C518.5,203.6,527.9,198.5,536.7,193.6z M549.4,139.7h40.2V37.8h16v40.4h59.9v14.3h-59.9v47.1
					h48.8v99h-15.6v-12.5H565v12.5h-15.6L549.4,139.7L549.4,139.7z M638.8,153.8H565V212h73.8V153.8z"/>
				
					<linearGradient id="SVGID_3_" gradientUnits="userSpaceOnUse" x1="771.85" y1="115.7311" x2="771.85" y2="300.621" gradientTransform="matrix(1 0 0 -1 0 354)">
					<stop  offset="0" style="stop-color:#FFF3AD"/>
					<stop  offset="1" style="stop-color:#FFFFFF"/>
				</linearGradient>
				<path class="st2" d="M679.4,53.4h192.3v15.2h-108c-7.8,18.1-17.2,35.3-28.2,51.7H854v117.2h-16v-18H733.5v18.9h-16v-93.7
					c-10.9,13.5-23,26.2-36.3,38.3c-2.7-5.6-5.8-10.8-9.2-15.6c31.8-27.5,56.4-60.4,73.6-98.8h-66.2L679.4,53.4L679.4,53.4z
					 M838.1,135.4H733.5v68.9h104.5V135.4z"/>
			</g>
		</g>
		<g>
			<g>
				
					<linearGradient id="SVGID_4_" gradientUnits="userSpaceOnUse" x1="354.2135" y1="118.9562" x2="354.2135" y2="331.1132" gradientTransform="matrix(1 0 0 -1 -4.969 362.4292)">
					<stop  offset="0" style="stop-color:#FFF3AD"/>
					<stop  offset="1" style="stop-color:#FFFFFF"/>
				</linearGradient>
				<path class="st3" d="M439.6,66.7H352v17.7h17.5V102l-52.6,53V31.3h-70.1V49h35.1v194.5L439.6,66.7z M440,218v-65.1
					c0-4.2-1.4-7.8-4.3-10.7c-3-3-6.5-4.5-10.5-4.5h-20.7v13.5h10.4V218h-14v13.5h50.9V218H440z"/>
			</g>
		</g>
	</g>
	<g>
		<path class="st4" d="M117,263.2c1.7-4,99.2-180.2,99.2-180.2l-24.5-49.3l-48.3-23.1L62.5,23.2L24.8,62.5L9.2,94.9"/>
		<polygon class="st4" points="191.7,33.7 143.4,10.6 62.5,23.2 25.7,61.6 76,89.3 156.2,76.3 		"/>
		<polyline class="st5" points="155.3,78.2 197.8,92.8 195.8,41.2 192.7,36 		"/>
		<path class="st5" d="M158.9,119.8l54.4-35.9c0,0-92.5,174.9-92.5,173.5s0.4-9.3,0.4-10.6S158,125.1,158,125.1"/>
		<polyline class="st5" points="213.2,80.7 198.1,90.2 195.1,43.3 		"/>
		<polyline class="st6" points="113.8,254.3 70.7,130.5 78,89.6 33.7,108.2 23.1,64.5 8.6,95.6 105.1,245.5 		"/>
		<path class="st5" d="M53.5,32.6l9-9.3l5.7-0.9l84,54.6l-24.3,4L53.5,32.6z M176.3,26.3l-32.9-15.7l-52.3,8.2l73.3,47.6l25.8-31
			L176.3,26.3z"/>
		<path class="st7" d="M215.4,73.8c-2.8-5.5-5.6-11-8.3-16.3c-2.9-5.8-5.7-11.8-8.7-17.7l-4.7-9.1l-7.1-3.1
			c-4.6-2.1-9.1-4.3-13.6-6.5c-6.2-3.1-12.5-6.1-18.7-9.2l-10.9-5.3L136,7.9c-21.5,3.7-43.1,6.5-64.7,9.8l-10.6,1.7l-5,5.3
			c-2.9,3.1-5.8,6.1-8.7,9.2C41,40.2,34.9,46.6,28.8,53l-6.4,6.9L4.6,96.7c0.2,0.2,0.3,0.5,0.5,0.7l3.5,5.4
			c31.2,47.8,62.4,95.6,93.8,143.3c3.7,5.6,7.4,11.3,11.1,16.9l3.3,5.1l2.8-5.1c7.2-13.2,14.4-26.4,21.6-39.6
			c24.6-44.8,49.2-89.7,73.6-134.6l4.2-7.8L215.4,73.8z M184,131.9c-22.6,42-45.2,84-67.7,126.1c-17.1-26.6-34.5-53.2-51.5-79.8
			C47,150.5,29.3,122.9,11.5,95.3c1.6-4,14.3-28.8,16.7-34.7c9.4-9.2,13.9-13.7,23.2-23c4.7-4.7,9.3-9.3,14-14
			c15.3-1.7,30.6-3.8,45.9-5.6c11.5-1.3,22.9-2.9,34.3-4.7c8.5,4.8,17.1,9.5,25.8,13.9c6.4,3.3,12.8,6.5,19.4,9.3
			c4.1,8.4,8.4,16.7,12.2,25c2.9,6.4,5.6,13,8.4,19.6C202.3,98.1,193.1,115,184,131.9z"/>
		<path class="st7" d="M215.1,79.4c-0.3-0.6-0.6-1.2-0.8-1.9c-17.9,12.7-35.6,25.8-53.3,38.8c-4.5,0.8-9,1.7-13.5,2.5
			c-11.5,2-23,3.8-34.6,5.5c-13,1.9-26.1,3.6-39.1,5.2c-8.4-3.6-16.6-7.8-24.7-12.4c-11-6.2-38.2-21.7-40-22.2
			c-0.5-0.2-1-0.5-1.5-0.7c0.3,1.4,1.1,3,1.5,4.1c0.1,0.3,0.2,0.6,0.4,0.9c0.1,0,0.3,0.1,0.4,0.1c18.1,9.6,35.4,21.9,53.8,31.4
			l6.4,3.1l11.9-1.1c13.8-1.3,27.7-2.7,41.5-4.4c8.6-1,17.1-2.1,25.7-3.3l8.9-1.3l13.4-9.3c15-10.4,30-20.9,44.8-31.5
			C215.9,81.8,215.6,80.5,215.1,79.4z"/>
		<path class="st7" d="M193,35.3c-0.4-0.5-0.9-1.1-1.3-1.6c-6.7,7.6-13.3,15.3-19.9,22.9c-5.1,5.8-10.1,11.6-15.2,17.4
			c-12.3,1.9-24.6,4.1-36.9,6.1c-13.4,2.2-26.8,4.4-40.2,6.8c-6.8-3.8-13.6-7.6-20.3-11.3c-10.8-6-21.7-11.9-32.6-17.8
			c0,0,0,0.1,0,0.1c-0.2,1-0.5,1.9-0.8,2.9c0,0.1-0.1,0.3-0.1,0.4c0,0.1-0.1,0.3-0.1,0.4c0,0,0,0,0,0c-0.2,0.3-0.4,0.6-0.7,0.9
			c10.2,6.1,20.4,12,30.7,17.7c5.1,2.8,10.2,5.6,15.4,8.4l7.4,3.9l8.5-1.4c10.6-1.8,21.2-3.6,31.8-5.3c10.5-1.6,21-3,31.5-4.4l6-0.8
			l6.7-7.5c3.5-3.9,7-7.9,10.5-11.8c7.1-7.9,14-16.1,21.2-24.2C194,36.5,193.5,35.9,193,35.3z"/>
		<path class="st7" d="M195.5,93.5c1.2-1.6,2.4-2.9,3.8-4.4c0.8-0.9,1.9-1.4,2.9-1.5c-1.5-14.6-3.7-29.2-5.8-43.7
			c-0.3-2.5-0.7-4.9-1-7.4c-0.7,0.1-1.4,0.2-2.2,0.3c-0.1,0-0.2,0-0.4,0c1.9,17.8,3,35.7,4.6,53.6c-9.5-4-19.8-6.5-29.5-9.9
			c-3.9-1.4-7.8-2.8-11.7-4.2c-0.1-0.4-0.2-0.8-0.3-1.2c0.1-0.2,0.3-0.5,0.4-0.7c-2,1.6-4.2,3.1-6.6,4.4c-0.7,0.4-1.3,0.6-1.9,0.6
			c-4.8,7.6-9.8,15-14.9,22.4c-4.7,6.8-9.6,13.5-14.5,20.1c-4.5-4-9.2-7.8-13.4-11.6c-7.9-7.1-15.7-14.2-23.4-21.5
			c0.1-0.1,0.3-0.1,0.4-0.2c-3.2,0-5.8-1-8.7-2C60.7,93.1,47.9,99.4,35,105.4c-0.9-4.1-1.8-8.3-2.7-12.4C30,82.6,28.2,72.1,26,61.7
			c-0.4,0.8-0.9,1.7-1.3,2.5c-0.4,0.7-0.9,1.2-1.5,1.6c1.5,9.7,3.4,19.3,5.2,28.8c0.8,4.1,1.5,8.4,2.2,12.8c-0.7,0.3-1.4,0.7-2.1,1
			c2.8,0.5,5.6,1.9,8.1,3.8c-0.2-0.7-0.3-1.3-0.5-2c13.2-5.6,26.1-11.7,38.9-18.1c-0.8,5.6-1.6,11.3-2.4,16.9
			c-1.2,7.5-2.6,15.1-3.8,22.7c1.7-0.8,4-0.1,5.2,1.2c1.1-7.7,2-15.5,3-23.2c0.9-6.3,1.8-12.6,2.7-19c6.8,7.2,13.8,14.2,20.8,21
			c4.7,4.5,9.4,9,14.1,13.6c0,0,0.1,0.1,0.1,0.1c1.8-1.3,2.5-0.4,4.7-1c0.5-0.1,1-0.2,1.5-0.1c4.9-6.3,11-14.6,15.7-20.9
			c5.6-7.6,10.9-15.3,16-23.2c0.1-0.2,0.2-0.3,0.3-0.5c1.4,6.5,2.8,13,4.1,19.5c1.2,6.2,2.4,12.3,3.6,18.5c0.9-0.6,1.8-1.2,2.7-1.7
			c0.5-0.3,1-0.5,1.5-0.6c-1.3-6-2.5-11.9-3.9-17.9c-1.2-5.4-2.4-10.7-3.7-16.1C169.7,87,182.6,91.8,195.5,93.5z"/>
		<path class="st7" d="M114,258.8c0.6-0.5,1.2-1.1,1.8-1.6c0.7-0.6,1.4-1.1,2.1-1.4c-0.2-0.5-0.4-1-0.5-1.5
			c-5.3-15.2-10.7-30.5-16.1-45.6c-9.5-26.4-19.2-52.8-29.4-79c-0.1,0-0.1,0-0.2,0c-1,0.3-2.1,0.2-2.9-0.1c9.4,26,18.8,52,27.8,78.1
			c5,14.4,10,28.9,14.8,43.4C112.2,253.6,113.1,256.2,114,258.8z"/>
		<path class="st7" d="M161.4,116.4c-0.1,0.2-0.2,0.5-0.3,0.7c-0.2,0.3-0.5,0.6-0.8,0.8c-0.3,0.2-0.7,0.4-1.1,0.4
			c-9.1,29.2-18,58.4-27.4,87.5c-4.7,14.5-9.4,29.1-14.3,43.6c-0.6,1.9-1.2,3.8-1.9,5.6c-0.6,0.6-1,1.2-1.4,2
			c-0.4,0.7-0.1,1.9,0.8,2.1c0,0,0,0,0,0c0.2,0.2,0.5,0.3,0.8,0.2c0.5,0.2,1.1,0.1,1.4-0.3c0.4-0.4,0.7-0.9,0.9-1.4
			c0.1-0.1,0.1-0.2,0.2-0.3c0,0,0,0,0,0c0.2-0.3,0.2-0.7,0.1-1.1c0.1-0.2,0.2-0.4,0.3-0.6c0.4-0.1,0.9-0.2,1.3-0.2
			c0.2-0.1,0.3-0.1,0.5-0.1c4.9-15.2,9.7-30.5,14.5-45.8c9.4-30.4,18.6-60.9,27.1-91.6C162.3,117.2,161.9,116.6,161.4,116.4z"/>
	</g>
</g>
</svg>
