<?xml version="1.0" encoding="utf-8"?>
<!-- Generator: Adobe Illustrator 21.1.0, SVG Export Plug-In . SVG Version: 6.00 Build 0)  -->
<svg version="1.1" id="图层_1" xmlns="http://www.w3.org/2000/svg" xmlns:xlink="http://www.w3.org/1999/xlink" x="0px" y="0px"
	 viewBox="0 0 893 281.1" style="enable-background:new 0 0 893 281.1;" xml:space="preserve">
<style type="text/css">
	.st0{fill:url(#SVGID_1_);stroke:#999999;stroke-width:2;stroke-miterlimit:10;}
	.st1{fill:url(#SVGID_2_);}
	.st2{fill:url(#SVGID_3_);}
	.st3{fill:url(#SVGID_4_);}
	.st4{fill:#C2C2C2;}
	.st5{fill:#FFFFFF;}
	.st6{fill:#ADADAD;}
	.st7{fill:#999999;}
</style>
<linearGradient id="SVGID_1_" gradientUnits="userSpaceOnUse" x1="528.7535" y1="31.463" x2="528.7535" y2="302.473" gradientTransform="matrix(1 0 0 -1 0 308)">
	<stop  offset="0" style="stop-color:#B2B2B2"/>
	<stop  offset="1" style="stop-color:#C9C7CA"/>
</linearGradient>
<path class="st0" d="M293.2,5.5H171.8c8.4,8,16.1,16.9,23,26.6c33.7,47.2,44.7,106.6,30.2,163c-6.5,25.2-17.7,49.6-33.4,72.7
	c-2,3-4.1,5.9-6.3,8.8l107.9,0h592.5V5.5H293.2z"/>
<g>
	<g>
		<g>
			
				<linearGradient id="SVGID_2_" gradientUnits="userSpaceOnUse" x1="555.3094" y1="65.725" x2="555.3094" y2="270.494" gradientTransform="matrix(1 0 0 -1 0 308)">
				<stop  offset="0" style="stop-color:#D6D6D6"/>
				<stop  offset="0.828" style="stop-color:#FFFFFF"/>
			</linearGradient>
			<path class="st1" d="M470.1,69.9h54.7c4.9-10.8,9.2-21.6,12.7-32.4l18.2,4.8c-4.2,9.5-8.6,18.6-13,27.6h97.8v172.4h-17.1v-14.6
				H487.3v14.6h-17.1V69.9z M623.4,85.3H487.3V140h136.1V85.3z M487.3,212.2h136.1V155H487.3V212.2z"/>
			
				<linearGradient id="SVGID_3_" gradientUnits="userSpaceOnUse" x1="769.3655" y1="61.968" x2="769.3655" y2="268.406" gradientTransform="matrix(1 0 0 -1 0 308)">
				<stop  offset="0" style="stop-color:#D6D6D6"/>
				<stop  offset="0.828" style="stop-color:#FFFFFF"/>
			</linearGradient>
			<path class="st2" d="M740.7,197.6c0.1,6.1,0.5,11.8,1,16.9c-10.2,5.7-21.2,12.6-33,20.7c-3.5,2.5-6.8,5.4-10,8.6l-11.1-14.4
				c4.6-4.5,6.9-9.7,6.9-15.7v-46.3h-28.6v-14.4h28.6v-30.5h-14.2v-14.2c-2.2,3.5-4.5,6.8-6.9,10c-2.6-5-5.6-9.7-9-14.2
				c13.6-19.1,24.4-40.6,32.4-64.5l15.2,5c-3.5,9.5-7.3,18.5-11.5,27.1H739v14.4h-45.7c-4,7.7-8.3,15-12.9,21.9H734v14.4h-24.4v30.5
				h30.3v14.4h-30.3V217C718.2,211.7,728.6,205.3,740.7,197.6z M855.3,157.9l10.6,12.1c-13.6,9.6-27.1,18.5-40.5,26.7
				c12.7,13.4,28.9,22.8,48.8,28.4c-4.3,5.8-7.9,11.1-10.9,15.9c-40.5-15.2-66.7-44.9-78.5-89.3h-19.6v68
				c11.1-5.3,23.3-11.5,36.5-18.8c0.1,6.4,0.5,12,1,16.9c-10.7,5.1-24,12.2-39.9,21.1c-2,1.3-4.9,3.6-8.8,7.1l-11.1-14.4
				c4.5-4.6,6.7-9.7,6.7-15.4V49.6h103.3v107.3h-15.2v-5.2h-37.8c4,13.1,9.5,24.6,16.5,34.4C830.3,177.2,843.2,167.8,855.3,157.9z
				 M837.9,63.8h-72.6v29.9h72.6V63.8z M837.9,137.5v-30.1h-72.6v30.1H837.9z"/>
		</g>
	</g>
	<g>
		<g>
			
				<linearGradient id="SVGID_4_" gradientUnits="userSpaceOnUse" x1="376.8689" y1="178.3299" x2="376.8689" y2="397.6829" gradientTransform="matrix(1 0 0 -1 -43.9394 429.0379)">
				<stop  offset="5.400000e-03" style="stop-color:#D6D6D6"/>
				<stop  offset="0.8118" style="stop-color:#FFFFFF"/>
			</linearGradient>
			<path class="st3" d="M426.4,67.9h-90.6v18.3h18.1v18.3l-54.4,54.8v-128H227v18.3h36.3v201.1L426.4,67.9z M426.7,224.4v-67.3
				c0-4.4-1.5-8-4.5-11c-3.1-3.1-6.7-4.6-10.9-4.6H390v14h10.7v69h-14.5v14h52.6v-14L426.7,224.4L426.7,224.4z"/>
		</g>
	</g>
</g>
<g>
	<path class="st4" d="M116.3,274.7c0,0-84-42.4-100.9-105.5S50.4,36.2,94,11.9c0,0,101.8,32.9,107.2,119.9
		c5.4,87-81.4,143.4-81.4,143.4"/>
	<g>
		<path class="st5" d="M146.6,126.6c-1.3-15.1-2.4-28.3-2.4-28.3l-41.2-25.2l-0.3-0.1l-34.4,27.2L146.6,126.6z"/>
		<path class="st5" d="M147.9,142l-92.7-31.3l1.3,16.5l92.8,31.3C148.9,153.8,148.4,148.1,147.9,142z"/>
	</g>
	<path class="st6" d="M152,183.2l-38.5,33.2l-51.9-31.1l-6-74.8L21.9,96.6c-9.4,23.2-13,48.3-6.5,72.5
		c16.9,63.2,100.9,105.5,100.9,105.5l3.6,0.6c0,0,45.4-29.6,68.5-78.9L152,183.2z"/>
	<path class="st7" d="M32.5,204.6c27.2,38.7,73.3,64.5,82.2,69.2c-0.8-13.2-3.4-57.6-3.4-57.6l-51.5-29.6L32.5,204.6z"/>
	<path class="st5" d="M180.5,76.4l-35.7,22.7L102,72.8l-5.4-62.4c0,0,15.6,2.8,23.7,9.9S151.1,40,151.1,40"/>
	<path class="st7" d="M163,47.9C145.8,31.7,124.1,18,98.7,7.7l-3.2-1.3l-3,1.8C69,22.4,49.8,39.4,35.4,58.1
		C-3.1,108.3-1.4,160.7,24.7,202.2c13.8,22,33.9,41.1,57.4,57.4c9.1,6.3,18.7,12.3,28.9,17.9l6.6,3.6l6-4.6
		c9.1-7.1,17.6-14.6,25.6-22.3c20.6-19.8,37.3-41.9,47.5-65.8C215.7,143.3,209.1,91.2,163,47.9z M177.7,75.8
		c-3.4,2.2-6.8,4.3-10.2,6.5c-6.9,4.5-13.8,9-20.5,13.6c-0.3,0.2-0.7,0.4-1,0.6l-2.6-1.6c-4.8-2.9-9.5-5.9-14.3-8.8
		c-8-5-16.1-9.9-24.2-14.8l-0.5-0.3c-0.1-1.8-0.3-3.7-0.4-5.5c-0.4-7.1-0.9-14.1-1.6-21.2c-0.9-10.4-2-20.9-3.4-31.3
		C134,28.9,160.8,51.2,177.7,75.8z M112.3,214.4c-13.1-8.1-26.2-16.1-39.3-24.1c-3-1.8-6-3.7-9-5.5c-0.1-0.8-0.1-1.6-0.2-2.4
		c-0.9-12.3-1.8-24.5-2.8-36.8c-0.9-11.4-1.8-22.8-2.7-34.2c2.6-2.2,5.2-4.5,7.8-6.7c11.6-10,23.3-20.1,34.9-30.1
		c8,4.8,16.1,9.6,24.1,14.3c6.1,3.6,12.2,7.2,18.3,10.8c0.1,2.8,0.2,5.7,0.4,8.5c0.6,12.3,1.3,24.6,1.9,36.9s1.4,24.6,2.1,36.9
		c0.1,0.9,0.1,1.7,0.1,2.6c-4.7,4-9.5,7.9-14.2,11.9C126.6,202.4,119.5,208.4,112.3,214.4z M95.9,11.5
		C95.9,11.5,95.9,11.5,95.9,11.5C95.9,11.5,95.8,11.5,95.9,11.5C95.8,11.5,95.8,11.5,95.9,11.5z M93.4,13.1
		c1.2,10.5,2.4,21,3.2,31.5c0.5,7.1,1,14.1,1.3,21.2c0.1,2.2,0.1,4.3,0.2,6.5l-0.2,0.2c0,0,0,0,0,0c-12,10-23.9,19.9-35.9,29.9
		c-1.3,1.1-2.7,2.2-4,3.4l-1.9,1.6c-5.6-2.3-11.2-4.5-16.7-6.8c-5.5-2.3-11-4.6-16.5-6.9C34.9,64.8,58.8,36.1,93.4,13.1z
		 M14.8,122.3c1.2-8.1,3.3-16.3,6.5-24.5c5.4,2.2,10.8,4.5,16.1,6.7c5.5,2.3,11,4.8,16.4,7.2l0.2,3.4c0.5,10.3,1.1,20.6,1.6,30.9
		c0.6,11.6,1.3,23.2,2,34.7l0.3,4.6c-7.8,5.3-15.8,10.6-24,15.7C18.5,177.6,10.6,151.1,14.8,122.3z M81.4,250.4
		c-18-13.5-33.9-29.2-45.9-46.7c8.3-5.3,16.4-10.7,24.3-16.2l4.7,2.8c1.5,0.9,3.1,1.8,4.6,2.7c13.4,7.9,26.8,15.9,40.2,23.8
		c0,0,0,0,0,0l0.3,0.2c0.6,7.1,1.3,14.3,1.7,21.4c0.6,10.8,0.9,21.6,1.4,32.4C101.8,264.5,91.2,257.7,81.4,250.4z M148.3,245
		c-9.1,9.5-19.1,18.4-29.9,26.8c-0.5-11.3-1.5-22.6-2.3-33.8c-0.5-6.5-0.8-13-1.2-19.6l1.7-1.4c7.2-6.2,14.3-12.3,21.5-18.5
		c3.4-3,6.8-5.9,10.3-8.8l5.1-4.4c5.6,2,11.1,3.9,16.6,6c4.6,1.7,9.2,3.3,13.9,4.9C175,213.7,162.6,230.1,148.3,245z M185.5,193
		c-10.6-3.6-20.8-7.6-31.3-11.2l-0.2-2.2c-0.9-11.6-1.7-23.3-2.7-34.9c-1-12.3-1.9-24.5-3-36.8c-0.2-1.8-0.3-3.7-0.5-5.5l-0.3-3.3
		c6.9-4.5,13.9-8.9,20.9-13.2c3.7-2.3,7.5-4.6,11.3-6.9c6.1,9.4,10.7,19.2,13.8,29C202.8,137.2,198.3,166.2,185.5,193z"/>
</g>
</svg>
